<svg width="26" height="26" viewBox="0 0 26 26" fill="none" xmlns="http://www.w3.org/2000/svg">
<path d="M6.39821 0.00277088C10.5998 0.00277088 14.7986 0.00277088 19.0002 0.00277088C19.2502 0.0471294 19.5029 0.0859461 19.7528 0.135849C23.063 0.815089 25.3901 3.64848 25.3957 7.01973C25.4012 10.7902 25.3957 14.5634 25.3985 18.3339C25.3985 18.7969 25.3596 19.2571 25.2652 19.7118C24.5903 23.0248 21.7467 25.3536 18.356 25.3592C14.5876 25.3647 10.8164 25.3592 7.04803 25.3592C6.57594 25.3592 6.10385 25.3315 5.64564 25.2233C2.8131 24.5607 0.994167 22.8308 0.208275 20.0306C0.11108 19.6841 0.069425 19.3237 0 18.9688V6.38762C0.044432 6.1381 0.0749792 5.88582 0.133296 5.63908C0.799777 2.81122 2.52985 0.992521 5.33184 0.20793C5.67897 0.110896 6.04276 0.0665377 6.39821 0V0.00277088ZM12.6992 23.0886V23.0997C14.5432 23.0997 16.3871 23.0997 18.231 23.0997C18.7947 23.0997 19.3501 23.0387 19.8889 22.8613C21.7356 22.2486 23.1546 20.477 23.1408 18.2535C23.1213 14.5385 23.1352 10.8235 23.1352 7.11122C23.1352 6.56229 23.0686 6.02721 22.8964 5.506C22.2827 3.6568 20.5026 2.24565 18.281 2.25951C14.5598 2.27892 10.8386 2.26505 7.12023 2.26505C6.57039 2.26505 6.03443 2.33159 5.51235 2.50348C3.67953 3.10786 2.24382 4.87944 2.2577 7.13617C2.2827 10.8346 2.26603 14.5329 2.26326 18.2313C2.26326 18.8634 2.35767 19.4762 2.57706 20.0722C3.21021 21.7828 4.94306 23.0581 6.77311 23.0858C8.74755 23.1135 10.7248 23.0914 12.702 23.0914L12.6992 23.0886Z" fill="#666666"/>
<path d="M19.2447 12.6893C19.2392 16.2851 16.2983 19.2183 12.6965 19.2183C9.08644 19.2183 6.14005 16.2685 6.15115 12.6643C6.16226 9.06853 9.11144 6.14087 12.7104 6.14919C16.3122 6.1575 19.2475 9.09625 19.2419 12.6921L19.2447 12.6893ZM16.9759 12.6727C16.9704 10.3022 15.0514 8.39761 12.6827 8.4087C10.3139 8.41979 8.42274 10.3133 8.41719 12.6754C8.41441 15.0431 10.325 16.9532 12.6965 16.9505C15.0709 16.9505 16.9815 15.0375 16.9731 12.6699L16.9759 12.6727Z" fill="#666666"/>
<path d="M19.5221 7.53525C18.6086 7.53525 17.8588 6.79506 17.8616 5.88854C17.8616 4.98756 18.628 4.22796 19.5249 4.23627C20.4246 4.24459 21.1632 4.98201 21.1743 5.87745C21.1855 6.77842 20.4329 7.53248 19.5221 7.53525Z" fill="#666666"/>
</svg>
