<svg width="27" height="26" viewBox="0 0 27 26" fill="none" xmlns="http://www.w3.org/2000/svg">
<path d="M7.22597 0.389123C11.4276 0.389123 15.6264 0.389123 19.828 0.389123C20.0779 0.433482 20.3306 0.472299 20.5806 0.522202C23.8908 1.20144 26.2179 4.03484 26.2234 7.40608C26.229 11.1766 26.2234 14.9498 26.2262 18.7203C26.2262 19.1833 26.1873 19.6435 26.0929 20.0982C25.4181 23.4112 22.5745 25.74 19.1837 25.7455C15.4153 25.7511 11.6442 25.7455 7.87579 25.7455C7.4037 25.7455 6.93161 25.7178 6.4734 25.6097C3.64086 24.9471 1.82193 23.2171 1.03603 20.417C0.938839 20.0704 0.897184 19.71 0.827759 19.3552V6.77397C0.872191 6.52446 0.902738 6.27217 0.961055 6.02543C1.62754 3.19757 3.35761 1.37887 6.1596 0.594283C6.50673 0.497249 6.87051 0.45289 7.22597 0.386353V0.389123ZM13.527 23.4749V23.486C15.3709 23.486 17.2148 23.486 19.0588 23.486C19.6225 23.486 20.1779 23.425 20.7166 23.2476C22.5634 22.6349 23.9824 20.8633 23.9685 18.6399C23.9491 14.9249 23.963 11.2098 23.963 7.49758C23.963 6.94864 23.8963 6.41356 23.7241 5.89235C23.1104 4.04316 21.3304 2.632 19.1088 2.64587C15.3876 2.66527 11.6664 2.65141 7.94799 2.65141C7.39814 2.65141 6.86218 2.71794 6.34011 2.88983C4.50729 3.49421 3.07158 5.26579 3.08546 7.52253C3.11045 11.2209 3.09379 14.9193 3.09102 18.6177C3.09102 19.2498 3.18543 19.8625 3.40482 20.4586C4.03797 22.1691 5.77082 23.4445 7.60087 23.4722C9.57531 23.4999 11.5525 23.4777 13.5298 23.4777L13.527 23.4749Z" fill="white"/>
<path d="M20.0724 13.0757C20.0669 16.6715 17.126 19.6047 13.5242 19.6047C9.91414 19.6047 6.96774 16.6548 6.97885 13.0507C6.98996 9.45491 9.93914 6.52725 13.5381 6.53557C17.1399 6.54389 20.0752 9.48263 20.0696 13.0784L20.0724 13.0757ZM17.8036 13.059C17.7981 10.6886 15.8791 8.78399 13.5104 8.79508C11.1416 8.80617 9.25044 10.6997 9.24489 13.0618C9.24211 15.4294 11.1527 17.3396 13.5242 17.3369C15.8986 17.3369 17.8092 15.4239 17.8008 13.0563L17.8036 13.059Z" fill="white"/>
<path d="M20.35 7.92157C19.4364 7.92157 18.6867 7.18138 18.6895 6.27486C18.6895 5.37388 19.4559 4.61428 20.3528 4.6226C21.2525 4.63091 21.9911 5.36833 22.0022 6.26377C22.0133 7.16475 21.2608 7.9188 20.35 7.92157Z" fill="white"/>
</svg>
