<svg width="277" height="121" viewBox="0 0 277 121" fill="none" xmlns="http://www.w3.org/2000/svg">
<path d="M18.453 3.76062C18.7592 3.24477 19.0793 3.03564 19.3855 3.03564C19.8726 3.03564 20.2345 3.48178 20.2345 3.96975C20.2345 4.17887 20.1788 4.36012 20.0535 4.54136C19.9004 4.95962 18.2721 7.19031 17.9798 11.2056C16.9916 24.7431 7.56923 52.8916 4.04801 60.0159C4.17327 59.9602 4.28461 59.8626 4.40987 59.7789C8.23728 56.9208 26.8037 52.2085 36.0312 52.2085C37.771 52.2085 39.1906 52.3619 40.0953 52.7522C40.5824 52.9614 40.7633 53.296 40.7633 53.6306C40.7633 54.1464 40.3458 54.6204 39.8586 54.6204C39.803 54.6204 39.7056 54.6204 39.6499 54.5925C37.9658 54.0209 36.9359 53.4772 34.8065 53.4772H34.6255C23.7557 53.6863 9.19762 56.8232 5.1336 60.7409C4.53513 61.187 3.86708 62.0375 3.26861 62.3024C2.62839 62.5673 2.11343 62.6927 1.75156 62.6927C1.2366 62.6927 1 62.4557 1 62.1211C1 61.675 1.51496 60.9779 2.44746 60.5178H2.47529C4.85525 60.5178 13.2477 26.8483 16.7968 10.8988L17.3396 8.82151L17.0055 9.21188C16.8803 9.29553 16.7411 9.33735 16.588 9.33735C16.073 9.33735 15.4746 8.94698 15.4189 8.34748C15.9617 7.97105 17.8824 5.65671 18.453 3.76062Z" fill="white" stroke="white" stroke-width="0.4" stroke-miterlimit="10"/>
<path d="M21.9045 42.6721C21.9045 43.2994 22.1133 43.7038 22.5726 43.7038C22.6282 43.7038 22.7257 43.6759 22.7813 43.6759C24.5906 43.1879 29.3088 36.4958 29.4062 34.8089C29.4897 34.2094 29.7959 33.9584 30.1021 33.9584C30.6449 33.9584 31.2712 34.6555 31.2712 35.4363C31.2712 35.4641 30.7284 37.7645 30.7284 39.7722C30.7284 41.0409 30.9372 42.1562 31.6331 42.5187C31.7583 42.5745 31.9393 42.6024 32.1202 42.6024C34.528 42.6024 41.1807 37.2069 41.2086 37.179C41.3617 37.0814 41.5148 37.0256 41.6261 37.0256C41.988 37.0256 42.2524 37.3602 42.2524 37.7506C42.2524 37.8342 42.2246 37.9318 42.1967 38.0573C42.1967 38.0852 35.544 43.397 32.2037 43.397C31.8419 43.397 31.5078 43.3413 31.2434 43.1879C29.949 42.4908 29.615 40.6505 29.615 38.8799V38.6429C28.0144 41.4173 25.0082 45.3907 22.6282 45.3907C22.322 45.3907 22.0298 45.335 21.7514 45.1816C20.7354 44.6379 20.3318 43.5225 20.3318 42.1702C20.3318 38.4895 23.1293 33.094 23.1293 33.0661C23.3102 32.5224 23.7556 32.2854 24.2149 32.2854C24.9386 32.2854 25.6902 32.857 25.6902 33.6378C25.6902 33.7354 25.6902 33.819 25.6623 33.9445C23.352 37.4299 21.9045 40.9572 21.9045 42.6721Z" fill="white" stroke="white" stroke-width="0.4" stroke-miterlimit="10"/>
<path d="M47.3325 34.112C47.3325 34.0144 47.3046 33.9586 47.1794 33.9586C45.551 34.7115 41.5844 38.7825 41.5844 41.529C41.5844 41.8357 41.6122 42.1006 41.7375 42.3795C41.9462 42.8953 42.3359 43.3136 42.9762 43.4948C43.1849 43.5924 43.4911 43.6203 43.7834 43.6203C44.5071 43.6203 45.4396 43.4391 46.3443 43.202C48.7521 42.5747 51.647 40.8459 56.3373 37.3186C56.5182 37.1931 56.727 37.1373 56.9079 37.1373C57.2976 37.1373 57.6317 37.3465 57.6317 37.6253C57.6317 37.7787 57.576 37.932 57.3672 38.0714C52.5238 41.7242 48.9469 43.5645 46.4139 44.2198C45.5649 44.4568 44.8133 44.5544 44.187 44.5544C43.6442 44.5544 43.1571 44.4986 42.7396 44.3453C41.7514 44.0107 41.1112 43.3554 40.7771 42.5328C40.5684 41.9891 40.4431 41.4175 40.4431 40.7901C40.4431 37.1373 44.02 32.6481 47.4577 32.6481H47.7639C47.9727 32.6481 48.1814 32.7038 48.3902 32.7735C48.9887 33.0803 49.1974 33.6519 49.1974 34.2514C49.1974 35.4225 48.4737 36.747 48.4459 36.7888C48.2928 36.9143 48.0005 36.9979 47.6665 36.9979C46.9706 36.9979 46.0659 36.6633 46.0659 36.0638C46.2747 35.7153 47.3325 34.572 47.3325 34.112Z" fill="white" stroke="white" stroke-width="0.4" stroke-miterlimit="10"/>
<path d="M61.2224 38.7266C58.8425 40.9851 56.1424 43.5226 54.8481 43.5226C54.8202 43.5226 54.7646 43.4947 54.695 43.4947C54.3609 43.4389 54.1243 43.2577 53.9156 43.0067C53.679 42.7 53.5815 42.3375 53.5815 41.9192C53.5815 41.7659 53.5815 41.6125 53.6094 41.4731C53.6651 40.9851 53.846 40.3856 54.1522 39.7861C55.029 37.8622 56.894 35.5896 59.2044 34.9065C59.8028 34.7253 60.3456 34.6695 60.8327 34.6695C61.7652 34.6695 62.4611 34.9762 62.9065 35.4223C63.8112 34.6695 64.8689 33.9166 65.4396 33.9166C65.5231 33.9166 65.6205 33.9445 65.6762 33.9724C66.0659 34.0282 66.2746 34.4185 66.2746 35.0877C66.2746 35.8127 66.038 36.8305 65.5231 38.1271C65.189 39.0333 65.0359 39.7861 65.0359 40.3856C65.0359 41.9471 66.0241 42.5327 67.4994 42.5327C71.3268 42.5327 78.4249 38.4895 79.4827 37.1651C79.6636 36.8026 79.8724 36.6771 80.0533 36.6771C80.3177 36.6771 80.4987 36.9141 80.4987 37.2487C80.4987 37.43 80.443 37.6112 80.2899 37.7925C79.928 38.3083 71.8696 43.0346 67.1654 43.0346C65.2447 43.0346 63.8808 42.226 63.8808 39.9534C63.8808 39.3539 63.9643 38.6569 64.1869 37.8064C64.3679 36.6632 64.7576 35.6036 64.7576 35.3666V35.3387C64.7576 35.3387 64.3122 35.7569 63.6163 36.4262C63.7416 36.7886 63.7416 37.1511 63.7416 37.3324V37.4579C63.4771 37.8482 63.1153 38.0295 62.7812 38.0295C62.656 38.0295 62.5446 38.0016 62.4194 37.9319L62.3359 37.667C61.9183 38.0852 61.7374 38.2386 61.2224 38.7266ZM60.7075 36.7329C59.26 36.7329 56.7409 40.0231 56.7409 40.7063C56.7409 40.8039 56.7966 40.8597 56.9218 40.8597C57.4925 40.8597 59.3018 39.4097 61.1946 36.8862C61.0415 36.7608 60.8884 36.7329 60.7075 36.7329Z" fill="white" stroke="white" stroke-width="0.4" stroke-miterlimit="10"/>
<path d="M85.3837 32.7315C85.3837 32.5502 85.328 32.4248 85.147 32.4248C84.994 32.4248 84.7852 32.4805 84.5207 32.6339C83.9223 32.9406 82.8645 33.8747 81.932 35.1016C81.3057 35.952 81.0552 36.7328 81.0552 37.4857C81.0552 39.4514 82.8367 41.2221 84.2702 43.5782C87.0399 41.5845 89.4198 40.1067 92.4818 38.601C94.2215 37.7227 96.5179 36.6073 98.5917 35.8545C99.2876 35.9102 99.6495 36.4818 99.6495 37.0256C99.6495 37.3602 99.4964 37.6948 99.2041 37.876C97.1303 38.113 95.2932 38.9356 93.5813 39.7721C90.4776 41.2778 87.5966 42.5744 84.7991 44.6239C85.3419 45.6137 85.5785 46.7988 85.5785 47.9699C85.5785 52.4871 82.1825 57.6177 78.1464 57.6177C77.7567 57.6177 77.367 57.5619 76.9773 57.4643C75.7664 57.1855 75.2932 56.0143 75.2932 54.8153C75.2932 54.3692 75.3767 53.9091 75.502 53.4909C76.1283 51.4693 78.6613 47.9699 83.7413 44.1498C82.6001 42.2259 79.4964 39.7861 79.4964 36.9419C79.4964 36.0915 79.7608 35.2271 80.4567 34.293C81.5702 32.7873 83.3099 31.881 83.9779 31.5464C84.6738 31.2397 85.2166 31.1282 85.6342 31.1282C86.4414 31.1282 86.8033 31.5743 86.9007 32.2993C86.9285 32.4526 86.9285 32.606 86.9285 32.7873C86.9285 34.6276 85.9404 36.9419 85.9404 36.9837C85.7038 37.3183 85.3141 37.4299 84.9104 37.4299C84.2841 37.4299 83.6161 37.0395 83.6161 36.3703C83.6161 36.2867 83.6161 36.1891 83.6439 36.1054C83.63 36.0775 85.3837 33.568 85.3837 32.7315ZM76.6293 53.8534C76.5458 54.1183 76.4762 54.4529 76.4762 54.7596C76.4762 55.2475 76.6572 55.6937 77.2278 55.847C77.4922 55.9307 77.7706 55.9725 78.0768 55.9725C81.3196 55.9725 84.5764 51.0232 84.5764 47.231C84.5764 46.4502 84.4512 45.7253 84.1589 45.0839C79.6077 48.5833 77.2 52.0827 76.6293 53.8534Z" fill="white" stroke="white" stroke-width="0.4" stroke-miterlimit="10"/>
<path d="M141.71 15.8759C142.308 14.5793 144.243 9.42087 144.243 5.8657C144.243 3.84413 143.644 2.33842 141.807 2.33842C141.598 2.33842 141.39 2.3663 141.181 2.39418C139.97 2.57543 138.536 3.09127 136.964 3.8999C132.566 6.18636 127.333 10.7732 124.382 16.6567C123.839 17.7163 123.63 18.6782 123.63 19.5148C123.63 21.8988 125.412 23.4603 127.541 24.5199C129.587 25.5795 131.967 26.1511 133.415 26.5136C134.5 26.7506 135.196 26.9318 135.224 27.5034V27.5313C135.224 28.0472 134.681 28.3121 133.415 28.4096C132.427 28.4654 131.132 28.9534 129.629 29.7062C125.412 31.8812 119.761 36.3983 115.21 41.3477C110.882 46.0461 107.472 51.4834 107.472 55.1501V55.5683C107.681 58.3428 109.337 59.486 111.87 59.486C122.489 59.486 148.947 39.2843 151.953 36.9978C152.079 36.8723 152.218 36.8445 152.343 36.8445C152.969 36.8445 153.61 37.8761 153.61 38.4478C153.61 38.6011 153.554 38.7127 153.429 38.7824C149.545 40.7482 123.269 60.1831 111.745 60.1831C108.613 60.1831 106.567 58.8028 106.331 55.2337C106.331 55.0804 106.303 54.8991 106.303 54.7458C106.303 50.7026 109.727 45.335 114.25 40.4554C118.884 35.3945 124.688 30.7798 129.031 28.5212C129.991 28.0332 130.868 27.6707 131.675 27.4058C130.297 27.0433 128.543 26.4996 126.957 25.7189C124.424 24.4223 122.267 22.5262 122.267 19.6263C122.267 18.5667 122.531 17.3677 123.199 16.0432C126.303 9.89489 131.772 5.0989 136.379 2.71485C138.063 1.83651 139.664 1.26489 140.986 1.05577C141.292 1 141.584 1 141.835 1C144.66 1 145.565 3.4677 145.565 6.66038C145.565 12.028 143.004 19.3753 142.35 20.5604C141.932 21.1878 140.819 21.8849 139.887 21.8849C139.038 21.8849 138.356 21.369 138.356 19.8354V19.5566C138.3 19.5287 140.596 18.1903 141.71 15.8759ZM133.846 27.4755C133.818 27.4755 133.79 27.4755 133.763 27.5034C133.818 27.6289 133.846 27.6847 133.888 27.6847V27.5871C133.888 27.5174 133.888 27.4755 133.846 27.4755Z" fill="white" stroke="white" stroke-width="0.4" stroke-miterlimit="10"/>
<path d="M161.041 31.644C161.222 31.644 161.375 31.644 161.528 31.6719C162.697 31.8811 163.157 32.4248 163.157 33.1776C163.157 35.5338 158.313 39.7861 157.255 40.6226C157.743 40.6226 157.854 40.6505 158.369 40.7759C160.15 41.1105 161.793 42.0168 162.224 44.1499C165.411 41.7937 169.141 39.2423 173.414 36.4958C173.498 36.44 173.595 36.3982 173.679 36.3982C173.985 36.3982 174.194 36.7328 174.194 37.0256C174.194 37.179 174.138 37.3323 174.013 37.416C169.434 40.3159 165.62 43.1182 162.308 45.5859C161.974 51.6506 149.698 64.1006 144.98 64.3934C144.896 64.3934 144.771 64.4213 144.618 64.4213C144.312 64.4213 143.992 64.3655 143.839 64.2679C143.574 64.0588 143.393 63.6684 143.393 63.2084C143.393 62.9435 143.449 62.6367 143.574 62.3021C145.62 56.335 156.671 48.3185 161.514 44.6657C161.361 42.6999 159.594 42.198 158.174 41.9192C157.631 41.8355 157.088 41.7658 156.574 41.7658C156.212 41.7658 155.822 41.7937 155.516 41.8216C155.39 41.8216 155.279 41.7937 155.154 41.6961C154.945 41.8216 154.736 41.8773 154.583 41.9331C154.5 41.961 154.402 41.961 154.347 41.961C153.86 41.961 153.595 41.6961 153.567 41.5427C153.595 41.4591 153.873 41.1803 154.319 40.9154C154.291 40.8596 154.263 40.8317 154.263 40.7899C154.263 40.7481 154.263 40.7341 154.291 40.7341C155.46 40.4553 158.536 37.7784 160.345 35.4641C161.152 34.4324 161.487 33.805 161.487 33.4704C161.487 33.2613 161.333 33.1637 161.125 33.1637C160.638 33.1637 159.747 33.5541 158.814 34.042C156.768 35.1295 155.112 36.217 154.027 37.653C153.456 38.3779 153.539 39.3121 153.122 39.5491C152.857 39.814 152.398 39.9116 151.953 39.9116C151.201 39.9116 150.45 39.6048 150.45 39.1587C150.45 39.1029 150.477 39.0053 150.505 38.9496C150.505 38.9635 157.255 31.644 161.041 31.644ZM145.147 62.6646C145.063 62.9295 144.966 63.4732 144.966 63.5708C149.726 62.818 160.29 51.7203 161.361 46.3248C157.52 49.2386 146.803 57.8407 145.147 62.6646Z" fill="white" stroke="white" stroke-width="0.4" stroke-miterlimit="10"/>
<path d="M177.91 35.4361C177.91 37.9735 173.846 39.5908 173.011 39.9254C173.011 40.1066 172.983 40.3157 172.983 40.5249C172.983 41.2498 173.108 42.1003 173.47 42.6301C173.86 43.2296 174.528 43.5084 175.363 43.5084C179.511 43.5084 187.819 37.2346 187.847 37.2067C187.973 37.1231 188.084 37.0812 188.209 37.0812C188.599 37.0812 188.933 37.4437 188.933 37.8062C188.933 37.9596 188.849 38.1129 188.696 38.2245C188.641 38.2524 180.54 44.1079 175.6 44.1079C174.305 44.1079 173.22 43.7176 172.566 42.6859C171.995 41.8354 171.786 40.9431 171.786 40.0648C171.786 38.3778 172.635 36.7745 173.623 35.6034C174.166 34.976 174.765 34.4881 175.307 34.1813C175.725 33.9443 176.115 33.8188 176.504 33.8188C176.713 33.8188 176.922 33.8467 177.103 33.9443C177.52 34.1256 177.826 34.5159 177.882 35.0876C177.882 35.227 177.91 35.3246 177.91 35.4361ZM176.087 35.4361C176.087 35.3803 176.059 35.3385 176.003 35.3385C175.405 35.4361 174.834 36.5514 173.442 38.3499C175.363 36.7048 176.087 35.7149 176.087 35.4361Z" fill="white" stroke="white" stroke-width="0.4" stroke-miterlimit="10"/>
<path d="M195.307 35.4084C194.5 36.3425 193.679 37.3742 192.927 38.3641C190.965 40.8597 189.253 43.0904 187.75 43.0904C187.596 43.0904 187.443 43.0904 187.304 43.0346C186.789 42.8812 186.427 42.5885 186.219 42.1563C186.038 41.7938 185.954 41.3476 185.954 40.8876C185.954 37.5694 190.102 32.2994 192.941 31.909C193.275 31.8532 193.567 31.8254 193.818 31.8254C194.987 31.8254 195.502 32.4527 195.961 32.9686C197.381 31.6162 198.856 30.6821 200.331 30.6821C200.54 30.6821 200.721 30.71 200.93 30.7379C202.196 30.9749 202.711 32.2157 202.711 34.0561C202.711 34.9902 202.586 36.0497 202.377 37.193C201.89 39.9116 196.685 51.7482 195.724 54.9549C195.78 55.4428 195.822 56.0144 195.822 56.6697C195.822 60.7686 194.792 67.7953 192.482 67.7953C192.301 67.7953 192.092 67.7674 191.911 67.6698C191.605 67.4886 191.466 67.0982 191.466 66.4987C191.466 64.6863 192.676 61.1869 193.873 57.2413C194.681 55.4986 200.944 38.9078 200.944 33.7354C200.944 32.7734 200.735 32.2297 200.22 32.2297H200.067C199.886 32.2018 199.705 32.1739 199.524 32.1739C198.466 32.1739 197.715 32.8989 196.49 34.1676C196.546 34.4743 196.573 34.795 196.573 35.0738C196.573 35.743 196.448 36.2449 196.448 36.2449C196.323 36.4262 196.058 36.5238 195.822 36.5238C195.516 36.5238 195.251 36.3704 195.251 36.0079V35.98C195.209 35.9521 195.279 35.743 195.307 35.4084ZM194.555 33.6657C194.374 33.6657 194.138 33.7214 193.651 33.8469C191.187 34.3628 187.819 40.1486 187.819 41.5986C187.819 41.7519 187.847 41.8356 187.903 41.9053C187.958 41.9332 188.028 41.9332 188.084 41.9332C188.933 41.9332 190.255 40.3299 191.994 38.0992C192.955 36.8584 193.915 35.1156 194.973 33.9724C194.792 33.7493 194.736 33.6657 194.555 33.6657ZM192.412 66.4569C192.412 66.5545 192.412 66.5824 192.44 66.6102H192.495C193.164 66.6102 194.207 61.3681 194.639 58.0778C193.595 61.5075 192.412 65.6064 192.412 66.4569Z" fill="white" stroke="white" stroke-width="0.4" stroke-miterlimit="10"/>
<path d="M205.356 42.6721C205.356 43.2994 205.565 43.7038 206.024 43.7038C206.08 43.7038 206.177 43.6759 206.233 43.6759C208.042 43.1879 212.76 36.4958 212.858 34.8089C212.955 34.2094 213.247 33.9584 213.554 33.9584C214.096 33.9584 214.723 34.6555 214.723 35.4363C214.723 35.4641 214.18 37.7645 214.18 39.7722C214.18 41.0409 214.389 42.1562 215.085 42.5187C215.21 42.5745 215.391 42.6024 215.572 42.6024C217.979 42.6024 224.632 37.2069 224.66 37.179C224.813 37.0814 224.966 37.0256 225.078 37.0256C225.439 37.0256 225.704 37.3602 225.704 37.7506C225.704 37.8342 225.676 37.9318 225.648 38.0573C225.648 38.0852 218.995 43.397 215.655 43.397C215.293 43.397 214.959 43.3413 214.695 43.1879C213.4 42.4908 213.066 40.6505 213.066 38.8799V38.6429C211.466 41.4173 208.46 45.3907 206.08 45.3907C205.773 45.3907 205.481 45.335 205.203 45.1816C204.173 44.6379 203.783 43.5225 203.783 42.1702C203.783 38.4895 206.581 33.094 206.581 33.0661C206.762 32.5224 207.207 32.2854 207.666 32.2854C208.39 32.2854 209.142 32.857 209.142 33.6378C209.142 33.7354 209.142 33.819 209.114 33.9445C206.789 37.4299 205.356 40.9572 205.356 42.6721Z" fill="white" stroke="white" stroke-width="0.4" stroke-miterlimit="10"/>
<path d="M225.745 41.3477C225.745 41.9751 225.926 42.4909 226.344 42.7698C226.497 42.8953 226.734 42.9231 227.04 42.9231C230.561 42.9231 243.894 37.1652 243.894 37.1652C244.131 36.9839 244.34 36.9282 244.562 36.9282C245.105 36.9282 245.495 37.3464 245.495 37.6531C245.495 37.7089 245.495 37.7786 245.439 37.8344C245.411 37.8344 231.535 43.8991 226.511 43.8991C225.759 43.8991 225.189 43.7736 224.91 43.4529C224.061 42.9092 223.769 41.8914 223.769 40.7343C223.769 38.6291 224.785 36.0638 225.328 35.1297C225.564 34.6138 225.996 34.4047 226.441 34.4047C227.068 34.4047 227.708 34.8508 227.708 35.4921C227.708 35.5758 227.708 35.6734 227.68 35.757C227.666 35.7431 225.745 39.2425 225.745 41.3477ZM229.392 29.776C229.392 29.9851 229.364 30.1942 229.267 30.4034C229.058 31.0308 228.543 31.463 228.07 31.463C227.972 31.463 227.889 31.463 227.791 31.4351C227.402 31.2817 227.165 30.8635 227.165 30.3476C227.165 30.1385 227.193 29.9294 227.29 29.7202C227.527 29.0928 228.042 28.6606 228.529 28.6606C228.612 28.6606 228.682 28.6606 228.766 28.6885C229.141 28.8419 229.392 29.2601 229.392 29.776Z" fill="white" stroke="white" stroke-width="0.4" stroke-miterlimit="10"/>
<path d="M249.42 35.4361C249.42 37.9735 245.356 39.5908 244.521 39.9254C244.521 40.1066 244.493 40.3157 244.493 40.5249C244.493 41.2498 244.618 42.1003 244.98 42.6301C245.37 43.2296 246.038 43.5084 246.873 43.5084C251.02 43.5084 259.329 37.2346 259.357 37.2067C259.482 37.1231 259.594 37.0812 259.719 37.0812C260.109 37.0812 260.443 37.4437 260.443 37.8062C260.443 37.9596 260.359 38.1129 260.206 38.2245C260.15 38.2524 252.05 44.1079 247.109 44.1079C245.815 44.1079 244.729 43.7176 244.075 42.6859C243.505 41.8354 243.296 40.9431 243.296 40.0648C243.296 38.3778 244.145 36.7745 245.133 35.6034C245.676 34.976 246.274 34.4881 246.817 34.1813C247.235 33.9443 247.624 33.8188 248.014 33.8188C248.223 33.8188 248.432 33.8467 248.613 33.9443C249.03 34.1256 249.336 34.5159 249.392 35.0876C249.392 35.227 249.42 35.3246 249.42 35.4361ZM247.583 35.4361C247.583 35.3803 247.555 35.3385 247.499 35.3385C246.901 35.4361 246.33 36.5514 244.938 38.3499C246.859 36.7048 247.583 35.7149 247.583 35.4361Z" fill="white" stroke="white" stroke-width="0.4" stroke-miterlimit="10"/>
<path d="M257.033 53.0728C257.033 54.0069 257.158 54.7318 257.367 55.178C257.673 55.8054 258.118 56.1121 258.661 56.1121C263.087 56.1121 274.43 37.8762 274.458 37.8204C274.764 37.3742 275.084 37.193 275.362 37.193C275.696 37.193 275.933 37.43 275.933 37.8622V37.8901C275.905 37.9459 264.019 56.5443 258.564 56.5443C257.756 56.5443 257.088 56.126 256.601 55.164C256.295 54.5366 256.184 53.5328 256.184 52.3338C256.184 44.4428 262.029 26.2347 266.024 20.7138C266.984 19.0547 267.944 17.6744 268.765 16.6985C269.698 15.6389 270.547 15.0394 271.229 15.0394H271.257C271.772 15.0673 272.161 15.4019 272.398 16.0293C272.523 16.3639 272.579 16.7543 272.579 17.2004C272.579 22.6238 264.005 35.3527 260.359 37.7925C258.146 44.9307 257.033 50.145 257.033 53.0728ZM271.451 16.7822C271.451 16.6288 271.424 16.5173 271.396 16.4197C271.312 16.2384 271.243 16.1548 271.187 16.1548H271.159C270.853 16.1548 270.31 16.6427 269.628 17.4235C268.849 18.3297 267.944 19.6542 267.012 21.2575C265.147 24.4502 262.739 31.1144 261.319 35.0878C263.17 33.359 271.451 19.9748 271.451 16.7822Z" fill="white" stroke="white" stroke-width="0.4" stroke-miterlimit="10"/>
<path d="M89.2681 67.0665H89.4769C92.9702 67.0665 100.709 67.7636 103.047 70.3568C103.464 70.8448 103.645 71.4164 103.645 72.0716C103.645 79.5724 78.3426 98.2126 74.8492 100.889C68.5305 105.769 65.399 109.031 60.2911 111.917C63.367 111.499 69.1707 110.983 75.4337 110.983C86.8046 110.983 99.623 112.67 100.054 119.544C99.9988 119.906 99.3864 120.171 98.941 120.171C98.6348 120.171 98.3704 120.045 98.3704 119.753C98.3704 119.697 98.3704 119.669 98.3982 119.599C98.3704 113.939 89.1846 112.28 78.9828 112.28C69.1986 112.28 58.5236 113.786 54.1255 114.664L53.7915 114.692C51.4115 115.835 49.463 116.504 48.0991 116.504H48.0156C46.9857 116.476 46.5125 116.198 46.5125 115.724V115.696C46.5125 115.096 49.2821 114.246 53.5549 113.521C58.8437 110.928 66.8882 106.382 74.5013 100.499C77.3544 98.3241 101.947 78.1085 101.947 72.4341C101.947 72.0716 101.85 71.7649 101.641 71.5279C99.7204 69.353 92.8589 69.0881 89.6578 69.0881H89.115C77.6467 69.1717 62.9912 72.0716 58.9272 77.0489C59.4421 77.3138 59.6231 77.6205 59.6231 77.9272C59.6231 78.6801 58.3009 79.4051 57.3405 79.4051C56.7699 79.4051 56.3524 79.168 56.3524 78.5546C56.3524 78.3455 56.408 78.0666 56.5333 77.7739C59.289 71.7092 76.6307 67.1641 89.2681 67.0665Z" fill="white" stroke="white" stroke-width="0.4" stroke-miterlimit="10"/>
<path d="M97.2014 97.2787C94.8215 99.5373 92.1214 102.075 90.8271 102.075C90.7992 102.075 90.7296 102.047 90.674 102.047C90.3399 101.991 90.1033 101.81 89.8946 101.559C89.658 101.252 89.5605 100.89 89.5605 100.471C89.5605 100.318 89.5605 100.165 89.5884 100.025C89.644 99.5373 89.825 98.9378 90.1312 98.3383C91.008 96.4143 92.873 94.1418 95.1834 93.4586C95.7818 93.2774 96.3246 93.2216 96.8117 93.2216C97.7442 93.2216 98.4401 93.5283 98.8855 93.9745C99.7902 93.2216 100.848 92.4688 101.419 92.4688C101.516 92.4688 101.599 92.4966 101.655 92.5245C102.045 92.5803 102.254 92.9707 102.254 93.6399C102.254 94.3648 102.017 95.3826 101.502 96.6792C101.168 97.5854 101.015 98.3383 101.015 98.9378C101.015 100.499 102.003 101.085 103.478 101.085C107.306 101.085 114.404 97.0417 115.462 95.7172C115.643 95.3547 115.851 95.2292 116.032 95.2292C116.297 95.2292 116.478 95.4662 116.478 95.8008C116.478 95.9821 116.422 96.1633 116.269 96.3446C115.907 96.8604 107.849 101.587 103.144 101.587C101.224 101.587 99.8597 100.778 99.8597 98.5056C99.8597 97.9061 99.9433 97.209 100.166 96.3585C100.347 95.2153 100.737 94.1557 100.737 93.9187V93.8908C100.737 93.8908 100.291 94.3091 99.5953 94.9783C99.7206 95.3408 99.7206 95.7033 99.7206 95.8845V96.01C99.4561 96.4003 99.0943 96.5816 98.7602 96.5816C98.635 96.5816 98.5236 96.5537 98.3984 96.484L98.3149 96.2191C97.8973 96.6374 97.7164 96.7907 97.2014 97.2787ZM96.6865 95.285C95.239 95.285 92.7199 98.5753 92.7199 99.2584C92.7199 99.356 92.7756 99.4118 92.9008 99.4118C93.4715 99.4118 95.2808 97.9618 97.1736 95.4384C97.0205 95.3129 96.8674 95.285 96.6865 95.285Z" fill="white" stroke="white" stroke-width="0.4" stroke-miterlimit="10"/>
<path d="M116.867 102.618C116.867 102.744 116.895 102.799 116.923 102.799C116.951 102.799 116.979 102.772 117.006 102.744C117.758 102.172 123.659 90.8095 124.23 89.6663C124.258 89.6384 124.564 88.8577 124.564 88.8577C124.689 88.7601 124.926 88.7322 125.19 88.7322C125.789 88.7322 126.568 88.9413 126.568 89.4014V89.4572L126.123 90.3355C125.97 90.7537 125.399 91.897 125.399 93.0541C125.399 94.4762 126.276 95.8843 129.825 95.8843C130.34 95.8843 130.883 95.8565 131.481 95.8007C131.899 95.9262 132.079 96.1911 132.079 96.4281C132.079 96.693 131.871 96.9718 131.481 96.9997C126.178 96.9997 124.564 95.0339 124.285 93.0541C121.697 97.7804 117.243 105.504 115.559 105.504C115.462 105.504 115.378 105.476 115.322 105.448C114.696 105.323 114.473 104.361 114.473 102.981C114.473 99.8159 115.74 94.3926 116.575 91.883C116.784 91.3114 117.173 91.1023 117.633 91.1023C118.356 91.1023 119.164 91.7297 119.47 92.4268C119.484 92.4268 116.867 101.224 116.867 102.618Z" fill="white" stroke="white" stroke-width="0.4" stroke-miterlimit="10"/>
<path d="M135.949 97.2787C133.569 99.5373 130.869 102.075 129.574 102.075C129.546 102.075 129.477 102.047 129.421 102.047C129.087 101.991 128.85 101.81 128.642 101.559C128.405 101.252 128.308 100.89 128.308 100.471C128.308 100.318 128.308 100.165 128.335 100.025C128.391 99.5373 128.572 98.9378 128.878 98.3383C129.755 96.4143 131.62 94.1418 133.93 93.4586C134.529 93.2774 135.072 93.2216 135.559 93.2216C136.491 93.2216 137.187 93.5283 137.633 93.9745C138.537 93.2216 139.595 92.4688 140.166 92.4688C140.263 92.4688 140.347 92.4966 140.402 92.5245C140.792 92.5803 141.001 92.9707 141.001 93.6399C141.001 94.3648 140.764 95.3826 140.249 96.6792C139.915 97.5854 139.762 98.3383 139.762 98.9378C139.762 100.499 140.75 101.085 142.225 101.085C146.053 101.085 153.151 97.0417 154.209 95.7172C154.39 95.3547 154.598 95.2292 154.779 95.2292C155.044 95.2292 155.225 95.4662 155.225 95.8008C155.225 95.9821 155.169 96.1633 155.016 96.3446C154.654 96.8604 146.596 101.587 141.891 101.587C139.971 101.587 138.607 100.778 138.607 98.5056C138.607 97.9061 138.69 97.209 138.913 96.3585C139.094 95.2153 139.484 94.1557 139.484 93.9187V93.8908C139.484 93.8908 139.038 94.3091 138.342 94.9783C138.468 95.3408 138.468 95.7033 138.468 95.8845V96.01C138.203 96.4003 137.841 96.5816 137.507 96.5816C137.382 96.5816 137.271 96.5537 137.145 96.484L137.062 96.2191C136.644 96.6374 136.464 96.7907 135.949 97.2787ZM135.434 95.285C133.986 95.285 131.467 98.5753 131.467 99.2584C131.467 99.356 131.523 99.4118 131.648 99.4118C132.219 99.4118 134.028 97.9618 135.921 95.4384C135.768 95.3129 135.615 95.285 135.434 95.285Z" fill="white" stroke="white" stroke-width="0.4" stroke-miterlimit="10"/>
<path d="M152.483 111.625C152.483 112.559 152.608 113.284 152.817 113.73C153.123 114.357 153.569 114.664 154.111 114.664C158.537 114.664 169.88 96.4282 169.908 96.3724C170.214 95.9263 170.534 95.745 170.813 95.745C171.147 95.745 171.383 95.982 171.383 96.4142V96.4421C171.356 96.4979 159.47 115.096 154.014 115.096C153.207 115.096 152.539 114.678 152.052 113.716C151.745 113.089 151.634 112.085 151.634 110.886C151.634 102.995 157.48 84.7867 161.474 79.2658C162.434 77.6067 163.395 76.2264 164.216 75.2505C165.148 74.1909 165.997 73.5914 166.679 73.5914H166.707C167.222 73.6193 167.612 73.9539 167.848 74.5813C167.974 74.9159 168.029 75.3063 168.029 75.7524C168.029 81.1758 159.456 93.9047 155.809 96.3445C153.596 103.483 152.483 108.697 152.483 111.625ZM166.902 75.3342C166.902 75.1808 166.874 75.0693 166.846 74.9717C166.763 74.7904 166.693 74.7068 166.637 74.7068H166.61C166.303 74.7068 165.761 75.1947 165.079 75.9755C164.299 76.8817 163.395 78.2062 162.462 79.8095C160.597 83.0022 158.189 89.6664 156.77 93.6398C158.635 91.911 166.902 78.5268 166.902 75.3342Z" fill="white" stroke="white" stroke-width="0.4" stroke-miterlimit="10"/>
<path d="M176.464 96.1355C176.018 96.5817 175.865 96.735 175.35 97.223C172.943 99.4537 170.27 101.991 169.004 101.991C168.948 101.991 168.879 101.963 168.823 101.963C168.489 101.907 168.224 101.754 168.044 101.517C167.807 101.21 167.709 100.792 167.709 100.304C167.709 100.22 167.709 100.095 167.709 99.9695C167.793 99.4537 167.974 98.8821 168.252 98.2547C169.157 96.3586 171.022 94.1 173.304 93.4029C173.973 93.2217 174.515 93.138 174.989 93.138C175.921 93.138 176.589 93.4448 177.034 93.8909C177.967 93.1659 178.997 92.4131 179.595 92.4131C179.679 92.4131 179.748 92.4409 179.804 92.4688C180.194 92.5246 180.403 92.915 180.403 93.5842C180.403 94.3092 180.166 95.3269 179.651 96.5956C179.442 97.223 179.345 97.8643 179.345 98.4081C179.345 98.896 179.401 99.3422 179.442 99.6489C179.832 100.318 180.611 100.918 182.114 100.918C183.144 100.918 184.467 100.653 186.234 99.9835C195.295 96.6374 206.248 92.0506 215.851 91.6602C216.45 91.6323 216.993 91.6323 217.535 91.6323C220.43 91.6323 222.769 91.9948 224.578 92.5664C228.043 93.5981 229.783 95.2154 230.173 96.0379C230.298 96.1913 230.326 96.3028 230.326 96.4562C230.326 96.8745 229.908 97.2648 229.477 97.2648C229.324 97.2648 229.171 97.2091 229.059 97.0836C228.753 96.4144 227.222 94.5183 224.091 93.5842C222.198 93.0126 219.721 92.3155 216.631 92.3155C216.325 92.3155 216.032 92.3434 215.698 92.3434C205.413 92.7616 195.754 97.3206 186.234 100.848C184.272 101.573 182.81 101.866 181.655 101.866C178.552 101.866 178.106 99.7186 178.106 98.4917V97.9061C178.106 97.3903 178.162 96.8466 178.315 96.275C178.496 95.1317 178.913 94.0721 178.913 93.863L178.886 93.8351C178.858 93.8351 178.398 94.2813 177.716 94.9226C177.87 95.2851 177.897 95.6755 177.897 95.8288L177.87 95.9264C177.633 96.3447 177.243 96.498 176.909 96.498C176.784 96.498 176.673 96.4701 176.547 96.4423C176.561 96.4283 176.533 96.4283 176.464 96.1355ZM174.835 95.2014C173.416 95.2014 170.869 98.4917 170.869 99.1749V99.2027C170.897 99.2864 170.952 99.3561 171.05 99.3561C171.593 99.3561 173.43 97.8783 175.295 95.3409C175.169 95.2572 175.016 95.2014 174.835 95.2014Z" fill="white" stroke="white" stroke-width="0.4" stroke-miterlimit="10"/>
</svg>
