<svg width="455" height="66" viewBox="0 0 455 66" fill="none" xmlns="http://www.w3.org/2000/svg">
<path d="M17.4699 2.96583C17.7716 2.46014 18.087 2.25513 18.3887 2.25513C18.8686 2.25513 19.2252 2.69248 19.2252 3.17084C19.2252 3.37586 19.1703 3.55353 19.0469 3.73121C18.8961 4.14123 17.2917 6.32802 17.0037 10.2642C16.0301 23.5353 6.74664 51.1298 3.27734 58.1139C3.40075 58.0592 3.51045 57.9636 3.63387 57.8815C7.40485 55.0797 25.6975 50.4601 34.789 50.4601C36.5031 50.4601 37.9018 50.6105 38.7931 50.9932C39.2731 51.1982 39.4514 51.5262 39.4514 51.8542C39.4514 52.3599 39.04 52.8246 38.56 52.8246C38.5052 52.8246 38.4092 52.8246 38.3543 52.7973C36.6951 52.2369 35.6804 51.7039 33.5823 51.7039H33.4041C22.6945 51.9089 8.35102 54.9841 4.34692 58.8246C3.75728 59.262 3.09907 60.0957 2.50943 60.3554C1.87864 60.615 1.37127 60.738 1.01475 60.738C0.507377 60.738 0.274261 60.5057 0.274261 60.1777C0.274261 59.7403 0.78163 59.0569 1.70038 58.6059H1.7278C4.07267 58.6059 12.3414 25.5991 15.8381 9.96355L16.3729 7.92711L16.0438 8.3098C15.9204 8.3918 15.7833 8.4328 15.6325 8.4328C15.1251 8.4328 14.5354 8.05012 14.4806 7.46242C15.0154 7.0934 16.9077 4.8246 17.4699 2.96583Z" fill="#59676C" stroke="#59676C" stroke-width="0.4" stroke-miterlimit="10"/>
<path d="M20.8707 41.1116C20.8707 41.7266 21.0764 42.1229 21.5289 42.1229C21.5838 42.1229 21.6797 42.0956 21.7346 42.0956C23.5172 41.6172 28.1658 35.0569 28.2618 33.4031C28.3441 32.8154 28.6458 32.5694 28.9475 32.5694C29.4823 32.5694 30.0993 33.2528 30.0993 34.0182C30.0993 34.0455 29.5645 36.3006 29.5645 38.2687C29.5645 39.5125 29.7702 40.6059 30.4559 40.9612C30.5793 41.0159 30.7575 41.0432 30.9358 41.0432C33.3081 41.0432 39.8627 35.7539 39.8902 35.7266C40.041 35.6309 40.1918 35.5762 40.3015 35.5762C40.6581 35.5762 40.9186 35.9043 40.9186 36.287C40.9186 36.369 40.8912 36.4646 40.8638 36.5876C40.8638 36.615 34.3091 41.8223 31.0181 41.8223C30.6615 41.8223 30.3324 41.7676 30.0719 41.6173C28.7966 40.9339 28.4675 39.1298 28.4675 37.394V37.1617C26.8906 39.8815 23.9286 43.7767 21.5838 43.7767C21.2821 43.7767 20.9941 43.722 20.7199 43.5717C19.7188 43.0387 19.3212 41.9453 19.3212 40.6195C19.3212 37.0113 22.0774 31.722 22.0774 31.6947C22.2557 31.1617 22.6945 30.9293 23.147 30.9293C23.8601 30.9293 24.6005 31.4897 24.6005 32.2551C24.6005 32.3507 24.6005 32.4327 24.5731 32.5557C22.2968 35.9726 20.8707 39.4305 20.8707 41.1116Z" fill="#59676C" stroke="#59676C" stroke-width="0.4" stroke-miterlimit="10"/>
<path d="M45.9237 32.7197C45.9237 32.6241 45.8963 32.5694 45.7729 32.5694C44.1685 33.3074 40.2604 37.2983 40.2604 39.9908C40.2604 40.2915 40.2878 40.5512 40.4112 40.8245C40.6169 41.3302 41.0009 41.7403 41.6317 41.9179C41.8374 42.0136 42.139 42.0409 42.427 42.0409C43.1401 42.0409 44.0588 41.8633 44.9501 41.6309C47.3224 41.0159 50.1746 39.3211 54.7958 35.8633C54.9741 35.7402 55.1798 35.6856 55.358 35.6856C55.742 35.6856 56.0711 35.8906 56.0711 36.1639C56.0711 36.3143 56.0162 36.4646 55.8106 36.6013C51.0385 40.1822 47.5144 41.9863 45.0187 42.6286C44.1822 42.861 43.4417 42.9567 42.8247 42.9567C42.2899 42.9567 41.8099 42.902 41.3985 42.7516C40.4249 42.4236 39.7942 41.7813 39.4651 40.9749C39.2594 40.4418 39.136 39.8815 39.136 39.2664C39.136 35.6856 42.6601 31.2847 46.0471 31.2847H46.3488C46.5545 31.2847 46.7602 31.3393 46.9659 31.4077C47.5555 31.7084 47.7612 32.2687 47.7612 32.8564C47.7612 34.0045 47.0482 35.3029 47.0207 35.3439C46.8699 35.4669 46.5819 35.5489 46.2528 35.5489C45.5672 35.5489 44.6759 35.2209 44.6759 34.6332C44.8816 34.2915 45.9237 33.1708 45.9237 32.7197Z" fill="#59676C" stroke="#59676C" stroke-width="0.4" stroke-miterlimit="10"/>
<path d="M59.609 37.2437C57.2641 39.4578 54.6038 41.9453 53.3286 41.9453C53.3011 41.9453 53.2463 41.918 53.1777 41.918C52.8486 41.8633 52.6155 41.6856 52.4098 41.4396C52.1767 41.1389 52.0807 40.7836 52.0807 40.3735C52.0807 40.2232 52.0807 40.0729 52.1081 39.9362C52.163 39.4578 52.3413 38.8701 52.6429 38.2824C53.5068 36.3963 55.3443 34.1685 57.6206 33.4988C58.2103 33.3212 58.7451 33.2665 59.225 33.2665C60.1438 33.2665 60.8294 33.5672 61.2682 34.0045C62.1595 33.2665 63.2017 32.5284 63.7639 32.5284C63.8462 32.5284 63.9422 32.5558 63.997 32.5831C64.381 32.6378 64.5867 33.0205 64.5867 33.6765C64.5867 34.3872 64.3536 35.3849 63.8462 36.656C63.5171 37.5444 63.3662 38.2824 63.3662 38.8701C63.3662 40.4009 64.3398 40.9749 65.7934 40.9749C69.5644 40.9749 76.5578 37.0114 77.6 35.713C77.7783 35.3576 77.9839 35.2346 78.1622 35.2346C78.4228 35.2346 78.601 35.4669 78.601 35.795C78.601 35.9726 78.5462 36.1503 78.3953 36.328C78.0388 36.8337 70.0992 41.4669 65.4643 41.4669C63.5719 41.4669 62.2281 40.6742 62.2281 38.4464C62.2281 37.8587 62.3104 37.1754 62.5298 36.3417C62.708 35.2209 63.092 34.1822 63.092 33.9499V33.9225C63.092 33.9225 62.6532 34.3325 61.9676 34.9886C62.091 35.3439 62.091 35.6993 62.091 35.877V36C61.8304 36.3827 61.4739 36.5603 61.1448 36.5603C61.0214 36.5603 60.9117 36.533 60.7883 36.4647L60.706 36.205C60.2946 36.615 60.1163 36.7653 59.609 37.2437ZM59.1016 35.2893C57.6755 35.2893 55.1935 38.5148 55.1935 39.1845C55.1935 39.2802 55.2483 39.3348 55.3718 39.3348C55.934 39.3348 57.7166 37.9134 59.5816 35.4396C59.4307 35.3166 59.2799 35.2893 59.1016 35.2893Z" fill="#59676C" stroke="#59676C" stroke-width="0.4" stroke-miterlimit="10"/>
<path d="M83.4142 31.3667C83.4142 31.189 83.3593 31.066 83.1811 31.066C83.0302 31.066 82.8245 31.1207 82.564 31.271C81.9743 31.5717 80.9322 32.4874 80.0134 33.6901C79.3964 34.5239 79.1495 35.2892 79.1495 36.0273C79.1495 37.9544 80.9047 39.6901 82.3172 41.9999C85.046 40.0455 87.3908 38.5967 90.4076 37.1207C92.1217 36.2596 94.3843 35.1662 96.4275 34.4282C97.1131 34.4829 97.4697 35.0432 97.4697 35.5762C97.4697 35.9043 97.3188 36.2323 97.0308 36.41C94.9877 36.6423 93.1776 37.4487 91.4909 38.2687C88.433 39.7448 85.5945 41.0159 82.8382 43.025C83.373 43.9954 83.6061 45.1571 83.6061 46.3052C83.6061 50.7334 80.2603 55.763 76.2836 55.763C75.8996 55.763 75.5157 55.7084 75.1317 55.6127C73.9387 55.3393 73.4725 54.1913 73.4725 53.0159C73.4725 52.5785 73.5548 52.1275 73.6782 51.7175C74.2952 49.7357 76.791 46.3052 81.7961 42.5603C80.6716 40.6742 77.6137 38.2824 77.6137 35.4942C77.6137 34.6605 77.8743 33.8131 78.5599 32.8974C79.6569 31.4213 81.371 30.533 82.0292 30.2049C82.7148 29.9043 83.2496 29.7949 83.661 29.7949C84.4563 29.7949 84.8129 30.2323 84.9088 30.943C84.9363 31.0933 84.9363 31.2437 84.9363 31.4213C84.9363 33.2254 83.9627 35.4942 83.9627 35.5352C83.7296 35.8633 83.3456 35.9726 82.9479 35.9726C82.3309 35.9726 81.6727 35.5899 81.6727 34.9339C81.6727 34.8519 81.6727 34.7562 81.7001 34.6742C81.6864 34.6469 83.4142 32.1867 83.4142 31.3667ZM74.7889 52.0728C74.7066 52.3325 74.6381 52.6605 74.6381 52.9612C74.6381 53.4396 74.8163 53.8769 75.3785 54.0273C75.6391 54.1093 75.9133 54.1503 76.215 54.1503C79.4101 54.1503 82.6188 49.2983 82.6188 45.5808C82.6188 44.8154 82.4954 44.1047 82.2075 43.476C77.7234 46.9065 75.3511 50.3371 74.7889 52.0728Z" fill="#59676C" stroke="#59676C" stroke-width="0.4" stroke-miterlimit="10"/>
<path d="M138.909 14.8428C139.499 13.5717 141.405 8.51477 141.405 5.02958C141.405 3.0478 140.815 1.57172 139.005 1.57172C138.8 1.57172 138.594 1.59905 138.388 1.62639C137.195 1.80406 135.783 2.30976 134.233 3.10247C129.9 5.34393 124.744 9.84051 121.837 15.6082C121.302 16.6469 121.097 17.5899 121.097 18.41C121.097 20.7471 122.852 22.2779 124.95 23.3166C126.966 24.3553 129.31 24.9157 130.737 25.271C131.806 25.5034 132.492 25.6811 132.519 26.2414V26.2688C132.519 26.7744 131.984 27.0341 130.737 27.1298C129.763 27.1845 128.488 27.6628 127.007 28.4009C122.852 30.533 117.284 34.9612 112.8 39.8132C108.536 44.4191 105.176 49.7494 105.176 53.3439V53.754C105.382 56.4738 107.014 57.5945 109.509 57.5945C119.972 57.5945 146.04 37.7904 149.002 35.5489C149.125 35.4259 149.262 35.3986 149.386 35.3986C150.003 35.3986 150.634 36.41 150.634 36.9703C150.634 37.1207 150.579 37.23 150.455 37.2984C146.63 39.2255 120.74 58.2779 109.386 58.2779C106.301 58.2779 104.285 56.9248 104.052 53.4259C104.052 53.2756 104.024 53.0979 104.024 52.9476C104.024 48.984 107.398 43.7221 111.854 38.9385C116.421 33.9772 122.139 29.4533 126.417 27.2391C127.363 26.7608 128.227 26.4054 129.023 26.1457C127.665 25.7904 125.937 25.2574 124.374 24.492C121.878 23.2209 119.753 21.3622 119.753 18.5193C119.753 17.4806 120.013 16.3052 120.671 15.0068C123.729 8.97946 129.119 4.27787 133.657 1.94074C135.317 1.07969 136.894 0.519325 138.196 0.314313C138.498 0.259644 138.786 0.259644 139.033 0.259644C141.816 0.259644 142.708 2.67878 142.708 5.80862C142.708 11.0706 140.185 18.2733 139.54 19.435C139.129 20.0501 138.032 20.7334 137.113 20.7334C136.277 20.7334 135.605 20.2278 135.605 18.7243V18.451C135.55 18.4237 137.812 17.1116 138.909 14.8428ZM131.162 26.2141C131.134 26.2141 131.107 26.2141 131.079 26.2414C131.134 26.3644 131.162 26.4191 131.203 26.4191V26.3234C131.203 26.2551 131.203 26.2141 131.162 26.2141Z" fill="#59676C" stroke="#59676C" stroke-width="0.4" stroke-miterlimit="10"/>
<path d="M157.956 30.3007C158.134 30.3007 158.285 30.3007 158.436 30.328C159.588 30.533 160.041 31.066 160.041 31.8041C160.041 34.1139 155.269 38.2824 154.226 39.1025C154.706 39.1025 154.816 39.1298 155.323 39.2528C157.079 39.5808 158.697 40.4692 159.122 42.5603C162.262 40.2505 165.937 37.7494 170.147 35.0569C170.229 35.0023 170.325 34.9613 170.407 34.9613C170.709 34.9613 170.915 35.2893 170.915 35.5763C170.915 35.7266 170.86 35.877 170.736 35.959C166.225 38.8018 162.468 41.5489 159.204 43.9681C158.875 49.9134 146.78 62.1184 142.132 62.4054C142.05 62.4054 141.926 62.4328 141.775 62.4328C141.474 62.4328 141.158 62.3781 141.007 62.2824C140.747 62.0774 140.569 61.6947 140.569 61.2437C140.569 60.984 140.623 60.6833 140.747 60.3553C142.763 54.5057 153.65 46.6469 158.422 43.066C158.272 41.1389 156.53 40.6469 155.131 40.3736C154.597 40.2915 154.062 40.2232 153.554 40.2232C153.198 40.2232 152.814 40.2505 152.512 40.2779C152.389 40.2779 152.279 40.2505 152.156 40.1549C151.95 40.2779 151.744 40.3325 151.594 40.3872C151.511 40.4146 151.415 40.4146 151.36 40.4146C150.88 40.4146 150.62 40.1549 150.593 40.0045C150.62 39.9225 150.894 39.6492 151.333 39.3895C151.306 39.3348 151.278 39.3075 151.278 39.2665C151.278 39.2255 151.278 39.2118 151.306 39.2118C152.457 38.9385 155.488 36.3143 157.271 34.0455C158.066 33.0341 158.395 32.4191 158.395 32.0911C158.395 31.8861 158.244 31.7904 158.038 31.7904C157.559 31.7904 156.681 32.1731 155.762 32.6515C153.746 33.7175 152.115 34.7836 151.045 36.1913C150.483 36.902 150.565 37.8177 150.154 38.0501C149.893 38.3098 149.441 38.4054 149.002 38.4054C148.261 38.4054 147.521 38.1048 147.521 37.6674C147.521 37.6127 147.548 37.5171 147.576 37.4624C147.576 37.4761 154.226 30.3007 157.956 30.3007ZM142.296 60.7107C142.214 60.9704 142.118 61.5034 142.118 61.5991C146.808 60.861 157.216 49.9818 158.272 44.6925C154.487 47.549 143.928 55.9818 142.296 60.7107Z" fill="#59676C" stroke="#59676C" stroke-width="0.4" stroke-miterlimit="10"/>
<path d="M174.576 34.0182C174.576 36.5056 170.572 38.0911 169.749 38.4191C169.749 38.5967 169.722 38.8018 169.722 39.0068C169.722 39.7175 169.845 40.5512 170.202 41.0706C170.586 41.6583 171.244 41.9316 172.067 41.9316C176.153 41.9316 184.339 35.7813 184.367 35.7539C184.49 35.6719 184.6 35.6309 184.723 35.6309C185.107 35.6309 185.436 35.9863 185.436 36.3416C185.436 36.492 185.354 36.6423 185.203 36.7516C185.148 36.779 177.168 42.5193 172.3 42.5193C171.024 42.5193 169.955 42.1366 169.31 41.1252C168.748 40.2915 168.542 39.4168 168.542 38.5557C168.542 36.902 169.379 35.3302 170.352 34.1822C170.887 33.5671 171.477 33.0888 172.012 32.7881C172.423 32.5557 172.807 32.4327 173.191 32.4327C173.397 32.4327 173.602 32.4601 173.781 32.5557C174.192 32.7334 174.494 33.1161 174.549 33.6765C174.549 33.8131 174.576 33.9088 174.576 34.0182ZM172.78 34.0182C172.78 33.9635 172.752 33.9225 172.697 33.9225C172.108 34.0182 171.545 35.1116 170.174 36.8747C172.067 35.2619 172.78 34.2915 172.78 34.0182Z" fill="#59676C" stroke="#59676C" stroke-width="0.4" stroke-miterlimit="10"/>
<path d="M191.717 33.9908C190.921 34.9065 190.112 35.9179 189.372 36.8883C187.438 39.3348 185.752 41.5216 184.271 41.5216C184.12 41.5216 183.969 41.5216 183.832 41.4669C183.325 41.3165 182.968 41.0295 182.762 40.6058C182.584 40.2505 182.502 39.8131 182.502 39.3621C182.502 36.1093 186.588 30.943 189.386 30.5603C189.715 30.5056 190.003 30.4783 190.25 30.4783C191.401 30.4783 191.909 31.0933 192.361 31.599C193.76 30.2733 195.214 29.3575 196.667 29.3575C196.873 29.3575 197.051 29.3849 197.257 29.4122C198.505 29.6446 199.012 30.861 199.012 32.6651C199.012 33.5808 198.889 34.6195 198.683 35.7402C198.203 38.4054 193.074 50.009 192.128 53.1525C192.183 53.6309 192.224 54.1913 192.224 54.8336C192.224 58.8518 191.209 65.7402 188.933 65.7402C188.755 65.7402 188.549 65.7129 188.371 65.6172C188.069 65.4395 187.932 65.0569 187.932 64.4692C187.932 62.6924 189.125 59.2619 190.304 55.394C191.1 53.6856 197.27 37.4213 197.27 32.3507C197.27 31.4077 197.065 30.8746 196.557 30.8746H196.407C196.228 30.8473 196.05 30.82 195.872 30.82C194.83 30.82 194.089 31.5307 192.882 32.7744C192.937 33.0751 192.965 33.3894 192.965 33.6628C192.965 34.3188 192.841 34.8108 192.841 34.8108C192.718 34.9885 192.457 35.0842 192.224 35.0842C191.922 35.0842 191.662 34.9339 191.662 34.5785V34.5512C191.621 34.5238 191.689 34.3188 191.717 33.9908ZM190.976 32.2824C190.798 32.2824 190.565 32.337 190.085 32.4601C187.658 32.9657 184.339 38.6377 184.339 40.0591C184.339 40.2095 184.367 40.2915 184.422 40.3598C184.477 40.3872 184.545 40.3872 184.6 40.3872C185.436 40.3872 186.739 38.8154 188.453 36.6286C189.399 35.4122 190.346 33.7038 191.388 32.5831C191.209 32.3644 191.155 32.2824 190.976 32.2824ZM188.865 64.4282C188.865 64.5238 188.865 64.5512 188.892 64.5785H188.947C189.605 64.5785 190.634 59.4395 191.059 56.214C190.03 59.5762 188.865 63.5944 188.865 64.4282Z" fill="#59676C" stroke="#59676C" stroke-width="0.4" stroke-miterlimit="10"/>
<path d="M201.617 41.1116C201.617 41.7266 201.823 42.1229 202.276 42.1229C202.33 42.1229 202.426 42.0956 202.481 42.0956C204.264 41.6172 208.912 35.0569 209.008 33.4031C209.104 32.8154 209.392 32.5694 209.694 32.5694C210.229 32.5694 210.846 33.2528 210.846 34.0182C210.846 34.0455 210.311 36.3006 210.311 38.2687C210.311 39.5125 210.517 40.6059 211.203 40.9612C211.326 41.0159 211.504 41.0432 211.682 41.0432C214.055 41.0432 220.609 35.7539 220.637 35.7266C220.788 35.6309 220.938 35.5762 221.048 35.5762C221.405 35.5762 221.665 35.9043 221.665 36.287C221.665 36.369 221.638 36.4646 221.61 36.5876C221.61 36.615 215.056 41.8223 211.765 41.8223C211.408 41.8223 211.079 41.7676 210.819 41.6173C209.543 40.9339 209.214 39.1298 209.214 37.394V37.1617C207.637 39.8815 204.675 43.7767 202.33 43.7767C202.029 43.7767 201.741 43.722 201.467 43.5717C200.452 43.0387 200.068 41.9453 200.068 40.6195C200.068 37.0113 202.824 31.722 202.824 31.6947C203.002 31.1617 203.441 30.9293 203.894 30.9293C204.607 30.9293 205.347 31.4897 205.347 32.2551C205.347 32.3507 205.347 32.4327 205.32 32.5557C203.03 35.9726 201.617 39.4305 201.617 41.1116Z" fill="#59676C" stroke="#59676C" stroke-width="0.4" stroke-miterlimit="10"/>
<path d="M221.706 39.8132C221.706 40.4282 221.885 40.9339 222.296 41.2073C222.447 41.3303 222.68 41.3576 222.982 41.3576C226.451 41.3576 239.588 35.713 239.588 35.713C239.821 35.5353 240.027 35.4806 240.246 35.4806C240.781 35.4806 241.165 35.8907 241.165 36.1913C241.165 36.246 241.165 36.3144 241.11 36.369C241.082 36.369 227.411 42.3143 222.461 42.3143C221.72 42.3143 221.158 42.1913 220.884 41.877C220.047 41.344 219.759 40.3462 219.759 39.2118C219.759 37.1481 220.76 34.6333 221.295 33.7175C221.528 33.2118 221.953 33.0068 222.392 33.0068C223.009 33.0068 223.64 33.4442 223.64 34.0729C223.64 34.1549 223.64 34.2506 223.612 34.3326C223.599 34.3189 221.706 37.7494 221.706 39.8132ZM225.299 28.4692C225.299 28.6743 225.272 28.8793 225.176 29.0843C224.97 29.6993 224.463 30.123 223.996 30.123C223.9 30.123 223.818 30.123 223.722 30.0957C223.338 29.9453 223.105 29.5353 223.105 29.0296C223.105 28.8246 223.133 28.6196 223.229 28.4146C223.462 27.7995 223.969 27.3759 224.449 27.3759C224.531 27.3759 224.6 27.3759 224.682 27.4032C225.052 27.5535 225.299 27.9636 225.299 28.4692Z" fill="#59676C" stroke="#59676C" stroke-width="0.4" stroke-miterlimit="10"/>
<path d="M245.032 34.0182C245.032 36.5056 241.028 38.0911 240.205 38.4191C240.205 38.5967 240.177 38.8018 240.177 39.0068C240.177 39.7175 240.301 40.5512 240.657 41.0706C241.041 41.6583 241.699 41.9316 242.522 41.9316C246.609 41.9316 254.795 35.7813 254.822 35.7539C254.946 35.6719 255.056 35.6309 255.179 35.6309C255.563 35.6309 255.892 35.9863 255.892 36.3416C255.892 36.492 255.81 36.6423 255.659 36.7516C255.604 36.779 247.623 42.5193 242.755 42.5193C241.48 42.5193 240.41 42.1366 239.766 41.1252C239.204 40.2915 238.998 39.4168 238.998 38.5557C238.998 36.902 239.835 35.3302 240.808 34.1822C241.343 33.5671 241.933 33.0888 242.467 32.7881C242.879 32.5557 243.263 32.4327 243.647 32.4327C243.852 32.4327 244.058 32.4601 244.236 32.5557C244.648 32.7334 244.949 33.1161 245.004 33.6765C245.004 33.8131 245.032 33.9088 245.032 34.0182ZM243.222 34.0182C243.222 33.9635 243.194 33.9225 243.139 33.9225C242.55 34.0182 241.987 35.1116 240.616 36.8747C242.509 35.2619 243.222 34.2915 243.222 34.0182Z" fill="#59676C" stroke="#59676C" stroke-width="0.4" stroke-miterlimit="10"/>
<path d="M252.532 51.3074C252.532 52.2232 252.656 52.9339 252.862 53.3712C253.163 53.9863 253.602 54.2869 254.137 54.2869C258.497 54.2869 269.673 36.4099 269.701 36.3553C270.002 35.9179 270.318 35.7402 270.592 35.7402C270.921 35.7402 271.154 35.9726 271.154 36.3963V36.4236C271.127 36.4783 259.416 54.7106 254.041 54.7106C253.246 54.7106 252.587 54.3006 252.107 53.3576C251.806 52.7425 251.696 51.7585 251.696 50.5831C251.696 42.8473 257.455 24.9976 261.391 19.5853C262.337 17.9589 263.283 16.6058 264.092 15.6491C265.011 14.6104 265.847 14.0227 266.519 14.0227H266.547C267.054 14.05 267.438 14.3781 267.671 14.9931C267.795 15.3211 267.85 15.7038 267.85 16.1412C267.85 21.4578 259.403 33.9361 255.81 36.3279C253.63 43.3257 252.532 48.4373 252.532 51.3074ZM266.739 15.7311C266.739 15.5808 266.711 15.4715 266.684 15.3758C266.602 15.1981 266.533 15.1161 266.478 15.1161H266.451C266.149 15.1161 265.614 15.5945 264.942 16.3598C264.175 17.2482 263.283 18.5466 262.364 20.1184C260.527 23.2482 258.155 29.7812 256.756 33.6765C258.58 31.9817 266.739 18.861 266.739 15.7311Z" fill="#59676C" stroke="#59676C" stroke-width="0.4" stroke-miterlimit="10"/>
<path d="M315.734 7.62634H315.94C319.382 7.62634 327.006 8.30971 329.31 10.8519C329.721 11.3302 329.899 11.8906 329.899 12.5329C329.899 19.886 304.97 38.1594 301.528 40.7835C295.302 45.5671 292.217 48.7653 287.184 51.5945C290.215 51.1844 295.933 50.6787 302.104 50.6787C313.307 50.6787 325.936 52.3325 326.362 59.0705C326.307 59.4259 325.703 59.6856 325.265 59.6856C324.963 59.6856 324.702 59.5626 324.702 59.2755C324.702 59.2209 324.702 59.1935 324.73 59.1252C324.702 53.5762 315.652 51.9498 305.601 51.9498C295.961 51.9498 285.443 53.4259 281.11 54.2869L280.781 54.3143C278.436 55.435 276.516 56.091 275.172 56.091H275.09C274.075 56.0637 273.609 55.7904 273.609 55.3257V55.2983C273.609 54.7106 276.338 53.8769 280.547 53.1662C285.758 50.6241 293.684 46.1685 301.185 40.4008C303.996 38.2687 328.226 18.4509 328.226 12.8883C328.226 12.5329 328.13 12.2323 327.925 11.9999C326.032 9.8678 319.272 9.60812 316.118 9.60812H315.583C304.284 9.69012 289.845 12.5329 285.841 17.4122C286.348 17.6719 286.526 17.9726 286.526 18.2733C286.526 19.0113 285.224 19.722 284.277 19.722C283.715 19.722 283.304 19.4897 283.304 18.8883C283.304 18.6833 283.359 18.4099 283.482 18.1229C286.197 12.1776 303.283 7.72201 315.734 7.62634Z" fill="#59676C" stroke="#59676C" stroke-width="0.4" stroke-miterlimit="10"/>
<path d="M323.55 37.2437C321.206 39.4578 318.545 41.9453 317.27 41.9453C317.243 41.9453 317.174 41.918 317.119 41.918C316.79 41.8633 316.557 41.6856 316.351 41.4396C316.118 41.1389 316.022 40.7836 316.022 40.3735C316.022 40.2232 316.022 40.0729 316.05 39.9362C316.104 39.4578 316.283 38.8701 316.584 38.2824C317.448 36.3963 319.286 34.1685 321.562 33.4988C322.152 33.3212 322.687 33.2665 323.166 33.2665C324.085 33.2665 324.771 33.5672 325.21 34.0045C326.101 33.2665 327.143 32.5284 327.705 32.5284C327.801 32.5284 327.884 32.5558 327.938 32.5831C328.322 32.6378 328.528 33.0205 328.528 33.6765C328.528 34.3872 328.295 35.3849 327.788 36.656C327.459 37.5444 327.308 38.2824 327.308 38.8701C327.308 40.4009 328.281 40.9749 329.735 40.9749C333.506 40.9749 340.499 37.0114 341.541 35.713C341.72 35.3576 341.925 35.2346 342.104 35.2346C342.364 35.2346 342.542 35.4669 342.542 35.795C342.542 35.9726 342.488 36.1503 342.337 36.328C341.98 36.8337 334.041 41.4669 329.406 41.4669C327.513 41.4669 326.17 40.6742 326.17 38.4464C326.17 37.8587 326.252 37.1754 326.471 36.3417C326.649 35.2209 327.033 34.1822 327.033 33.9499V33.9225C327.033 33.9225 326.595 34.3325 325.909 34.9886C326.032 35.3439 326.032 35.6993 326.032 35.877V36C325.772 36.3827 325.415 36.5603 325.086 36.5603C324.963 36.5603 324.853 36.533 324.73 36.4647L324.647 36.205C324.236 36.615 324.058 36.7653 323.55 37.2437ZM323.043 35.2893C321.617 35.2893 319.135 38.5148 319.135 39.1845C319.135 39.2802 319.19 39.3348 319.313 39.3348C319.875 39.3348 321.658 37.9134 323.523 35.4396C323.372 35.3166 323.221 35.2893 323.043 35.2893Z" fill="#59676C" stroke="#59676C" stroke-width="0.4" stroke-miterlimit="10"/>
<path d="M342.926 42.4784C342.926 42.6014 342.954 42.656 342.981 42.656C343.009 42.656 343.036 42.6287 343.063 42.6014C343.804 42.041 349.618 30.902 350.18 29.7813C350.208 29.754 350.509 28.9886 350.509 28.9886C350.633 28.8929 350.866 28.8656 351.127 28.8656C351.716 28.8656 352.484 29.0706 352.484 29.5216V29.5763L352.045 30.4374C351.894 30.8474 351.332 31.9681 351.332 33.1025C351.332 34.4966 352.196 35.877 355.693 35.877C356.2 35.877 356.735 35.8497 357.325 35.795C357.736 35.918 357.914 36.1777 357.914 36.41C357.914 36.6697 357.709 36.943 357.325 36.9704C352.1 36.9704 350.509 35.0433 350.235 33.1025C347.685 37.7358 343.297 45.3075 341.637 45.3075C341.541 45.3075 341.459 45.2802 341.404 45.2528C340.787 45.1298 340.568 44.1868 340.568 42.8337C340.568 39.7312 341.816 34.4146 342.638 31.9544C342.844 31.3941 343.228 31.1891 343.681 31.1891C344.394 31.1891 345.189 31.8041 345.491 32.4875C345.504 32.4875 342.926 41.1116 342.926 42.4784Z" fill="#59676C" stroke="#59676C" stroke-width="0.4" stroke-miterlimit="10"/>
<path d="M361.726 37.2437C359.382 39.4578 356.721 41.9453 355.446 41.9453C355.419 41.9453 355.35 41.918 355.295 41.918C354.966 41.8633 354.733 41.6856 354.527 41.4396C354.294 41.1389 354.198 40.7836 354.198 40.3735C354.198 40.2232 354.198 40.0729 354.226 39.9362C354.28 39.4578 354.459 38.8701 354.76 38.2824C355.624 36.3963 357.462 34.1685 359.738 33.4988C360.328 33.3212 360.863 33.2665 361.342 33.2665C362.261 33.2665 362.947 33.5672 363.386 34.0045C364.277 33.2665 365.319 32.5284 365.881 32.5284C365.977 32.5284 366.06 32.5558 366.114 32.5831C366.498 32.6378 366.704 33.0205 366.704 33.6765C366.704 34.3872 366.471 35.3849 365.964 36.656C365.635 37.5444 365.484 38.2824 365.484 38.8701C365.484 40.4009 366.457 40.9749 367.911 40.9749C371.682 40.9749 378.675 37.0114 379.717 35.713C379.896 35.3576 380.101 35.2346 380.28 35.2346C380.54 35.2346 380.718 35.4669 380.718 35.795C380.718 35.9726 380.664 36.1503 380.513 36.328C380.156 36.8337 372.217 41.4669 367.582 41.4669C365.689 41.4669 364.346 40.6742 364.346 38.4464C364.346 37.8587 364.428 37.1754 364.647 36.3417C364.826 35.2209 365.209 34.1822 365.209 33.9499V33.9225C365.209 33.9225 364.771 34.3325 364.085 34.9886C364.208 35.3439 364.208 35.6993 364.208 35.877V36C363.948 36.3827 363.591 36.5603 363.262 36.5603C363.139 36.5603 363.029 36.533 362.906 36.4647L362.823 36.205C362.412 36.615 362.234 36.7653 361.726 37.2437ZM361.219 35.2893C359.793 35.2893 357.311 38.5148 357.311 39.1845C357.311 39.2802 357.366 39.3348 357.489 39.3348C358.051 39.3348 359.834 37.9134 361.699 35.4396C361.548 35.3166 361.397 35.2893 361.219 35.2893Z" fill="#59676C" stroke="#59676C" stroke-width="0.4" stroke-miterlimit="10"/>
<path d="M378.017 51.3074C378.017 52.2232 378.14 52.9339 378.346 53.3712C378.648 53.9863 379.087 54.2869 379.621 54.2869C383.982 54.2869 395.158 36.4099 395.185 36.3553C395.487 35.9179 395.802 35.7402 396.077 35.7402C396.406 35.7402 396.639 35.9726 396.639 36.3963V36.4236C396.611 36.4783 384.901 54.7106 379.525 54.7106C378.73 54.7106 378.072 54.3006 377.592 53.3576C377.29 52.7425 377.181 51.7585 377.181 50.5831C377.181 42.8473 382.94 24.9976 386.875 19.5853C387.822 17.9589 388.768 16.6058 389.577 15.6491C390.496 14.6104 391.332 14.0227 392.004 14.0227H392.031C392.539 14.05 392.923 14.3781 393.156 14.9931C393.279 15.3211 393.334 15.7038 393.334 16.1412C393.334 21.4578 384.887 33.9361 381.294 36.3279C379.114 43.3257 378.017 48.4373 378.017 51.3074ZM392.223 15.7311C392.223 15.5808 392.196 15.4715 392.169 15.3758C392.086 15.1981 392.018 15.1161 391.963 15.1161H391.935C391.634 15.1161 391.099 15.5945 390.427 16.3598C389.659 17.2482 388.768 18.5466 387.849 20.1184C386.012 23.2482 383.639 29.7812 382.241 33.6765C384.078 31.9817 392.223 18.861 392.223 15.7311Z" fill="#59676C" stroke="#59676C" stroke-width="0.4" stroke-miterlimit="10"/>
<path d="M401.644 36.123C401.205 36.5603 401.054 36.7106 400.547 37.189C398.175 39.3758 395.542 41.8633 394.294 41.8633C394.239 41.8633 394.171 41.8359 394.116 41.8359C393.787 41.7813 393.526 41.6309 393.348 41.3986C393.115 41.0979 393.019 40.6879 393.019 40.2095C393.019 40.1275 393.019 40.0045 393.019 39.8815C393.101 39.3758 393.279 38.8154 393.554 38.2004C394.445 36.3416 396.282 34.1275 398.531 33.4441C399.189 33.2665 399.724 33.1845 400.191 33.1845C401.109 33.1845 401.767 33.4851 402.206 33.9225C403.125 33.2118 404.14 32.4737 404.729 32.4737C404.812 32.4737 404.88 32.5011 404.935 32.5284C405.319 32.5831 405.525 32.9658 405.525 33.6218C405.525 34.3325 405.292 35.3302 404.784 36.574C404.579 37.189 404.483 37.8177 404.483 38.3507C404.483 38.8291 404.537 39.2665 404.579 39.5671C404.963 40.2232 405.73 40.8109 407.211 40.8109C408.226 40.8109 409.529 40.5512 411.27 39.8952C420.197 36.615 430.989 32.1184 440.451 31.7357C441.041 31.7084 441.575 31.7084 442.11 31.7084C444.962 31.7084 447.266 32.0637 449.049 32.6241C452.463 33.6355 454.177 35.2209 454.561 36.0273C454.685 36.1776 454.712 36.287 454.712 36.4373C454.712 36.8473 454.301 37.23 453.876 37.23C453.725 37.23 453.574 37.1753 453.464 37.0523C453.163 36.3963 451.654 34.5375 448.569 33.6218C446.704 33.0614 444.263 32.3781 441.219 32.3781C440.917 32.3781 440.629 32.4054 440.3 32.4054C430.166 32.8154 420.65 37.2847 411.27 40.7425C409.337 41.4532 407.897 41.7403 406.759 41.7403C403.701 41.7403 403.262 39.6355 403.262 38.4327V37.8587C403.262 37.353 403.317 36.82 403.468 36.2596C403.646 35.1389 404.057 34.1002 404.057 33.8952L404.03 33.8678C404.003 33.8678 403.55 34.3052 402.878 34.9339C403.029 35.2892 403.056 35.6719 403.056 35.8223L403.029 35.9179C402.796 36.328 402.412 36.4783 402.083 36.4783C401.959 36.4783 401.85 36.451 401.726 36.4236C401.74 36.41 401.713 36.41 401.644 36.123ZM400.04 35.2072C398.641 35.2072 396.132 38.4327 396.132 39.1025V39.1298C396.159 39.2118 396.214 39.2801 396.31 39.2801C396.845 39.2801 398.655 37.8314 400.492 35.3439C400.369 35.2619 400.218 35.2072 400.04 35.2072Z" fill="#59676C" stroke="#59676C" stroke-width="0.4" stroke-miterlimit="10"/>
</svg>
