<svg width="192" height="84" viewBox="0 0 192 84" fill="none" xmlns="http://www.w3.org/2000/svg">
<path d="M13.0614 2.90775C13.273 2.55126 13.4942 2.40674 13.7058 2.40674C14.0424 2.40674 14.2925 2.71505 14.2925 3.05228C14.2925 3.1968 14.254 3.32205 14.1675 3.44731C14.0617 3.73635 12.9363 5.27793 12.7343 8.05278C12.0514 17.4083 5.53984 36.8611 3.10641 41.7845C3.19298 41.746 3.26992 41.6785 3.35649 41.6207C6.00152 39.6456 18.8324 36.389 25.2093 36.389C26.4116 36.389 27.3927 36.495 28.0178 36.7647C28.3545 36.9093 28.4795 37.1405 28.4795 37.3717C28.4795 37.7282 28.191 38.0558 27.8543 38.0558C27.8159 38.0558 27.7485 38.0558 27.7101 38.0365C26.5462 37.6415 25.8345 37.2658 24.3629 37.2658H24.2378C16.7259 37.4103 6.66519 39.5781 3.85664 42.2855C3.44305 42.5938 2.98137 43.1816 2.56779 43.3646C2.12534 43.5477 1.76947 43.6344 1.51939 43.6344C1.16351 43.6344 1 43.4706 1 43.2394C1 42.9311 1.35588 42.4493 2.0003 42.1314H2.01954C3.66427 42.1314 9.46412 18.8631 11.9168 7.84081L12.2919 6.40522L12.0611 6.67499C11.9745 6.7328 11.8783 6.76171 11.7725 6.76171C11.4166 6.76171 11.003 6.49193 10.9646 6.07763C11.3397 5.81749 12.667 4.2181 13.0614 2.90775Z" fill="#696969" stroke="#696969" stroke-width="0.4" stroke-miterlimit="10"/>
<path d="M15.4467 29.7986C15.4467 30.2322 15.591 30.5116 15.9084 30.5116C15.9469 30.5116 16.0142 30.4923 16.0527 30.4923C17.3031 30.1551 20.5637 25.5303 20.631 24.3645C20.6887 23.9502 20.9003 23.7768 21.1119 23.7768C21.487 23.7768 21.9199 24.2585 21.9199 24.7981C21.9199 24.8174 21.5447 26.4071 21.5447 27.7945C21.5447 28.6713 21.689 29.4421 22.1699 29.6926C22.2565 29.7312 22.3815 29.7504 22.5066 29.7504C24.1705 29.7504 28.7681 26.0217 28.7873 26.0024C28.8931 25.935 28.9989 25.8965 29.0759 25.8965C29.326 25.8965 29.5087 26.1277 29.5087 26.3975C29.5087 26.4553 29.4895 26.5227 29.4702 26.6094C29.4702 26.6287 24.8727 30.2996 22.5643 30.2996C22.3142 30.2996 22.0834 30.2611 21.9006 30.1551C21.0061 29.6733 20.7753 28.4015 20.7753 27.1779V27.0141C19.6692 28.9315 17.5916 31.6774 15.9469 31.6774C15.7353 31.6774 15.5333 31.6389 15.3409 31.5329C14.6388 31.1571 14.3599 30.3863 14.3599 29.4517C14.3599 26.9081 16.2931 23.1794 16.2931 23.1602C16.4182 22.7844 16.726 22.6206 17.0434 22.6206C17.5435 22.6206 18.0629 23.0156 18.0629 23.5552C18.0629 23.6226 18.0629 23.6804 18.0437 23.7672C16.447 26.1759 15.4467 28.6135 15.4467 29.7986Z" fill="#696969" stroke="#696969" stroke-width="0.4" stroke-miterlimit="10"/>
<path d="M33.0194 23.8828C33.0194 23.8153 33.0001 23.7768 32.9136 23.7768C31.7882 24.2971 29.047 27.1104 29.047 29.0085C29.047 29.2205 29.0662 29.4035 29.1528 29.5962C29.2971 29.9527 29.5664 30.2418 30.0088 30.367C30.1531 30.4345 30.3647 30.4537 30.5667 30.4537C31.0668 30.4537 31.7113 30.3285 32.3365 30.1647C34.0004 29.7311 36.001 28.5364 39.2424 26.0988C39.3674 26.0121 39.5117 25.9735 39.6368 25.9735C39.9061 25.9735 40.1369 26.118 40.1369 26.3107C40.1369 26.4167 40.0984 26.5227 39.9542 26.6191C36.607 29.1434 34.1351 30.4152 32.3846 30.868C31.7978 31.0318 31.2784 31.0993 30.8456 31.0993C30.4705 31.0993 30.1339 31.0607 29.8453 30.9548C29.1624 30.7235 28.72 30.2707 28.4891 29.7022C28.3449 29.3265 28.2583 28.9314 28.2583 28.4979C28.2583 25.9735 30.7302 22.8711 33.1059 22.8711H33.3175C33.4618 22.8711 33.6061 22.9096 33.7504 22.9578C34.1639 23.1698 34.3082 23.5648 34.3082 23.9791C34.3082 24.7884 33.8081 25.7038 33.7888 25.7327C33.683 25.8194 33.481 25.8772 33.2502 25.8772C32.7693 25.8772 32.1441 25.6459 32.1441 25.2316C32.2884 24.9908 33.0194 24.2007 33.0194 23.8828Z" fill="#696969" stroke="#696969" stroke-width="0.4" stroke-miterlimit="10"/>
<path d="M42.6183 27.0718C40.9736 28.6327 39.1077 30.3862 38.2132 30.3862C38.1939 30.3862 38.1554 30.367 38.1074 30.367C37.8765 30.3284 37.713 30.2032 37.5687 30.0297C37.4052 29.8178 37.3379 29.5673 37.3379 29.2782C37.3379 29.1722 37.3379 29.0663 37.3571 28.9699C37.3956 28.6327 37.5206 28.2184 37.7322 27.8041C38.3382 26.4745 39.627 24.904 41.2237 24.4319C41.6373 24.3066 42.0124 24.2681 42.349 24.2681C42.9935 24.2681 43.4744 24.4801 43.7822 24.7884C44.4074 24.2681 45.1383 23.7478 45.5327 23.7478C45.5904 23.7478 45.6577 23.7671 45.6962 23.7863C45.9655 23.8249 46.1098 24.0947 46.1098 24.5571C46.1098 25.0581 45.9463 25.7615 45.5904 26.6575C45.3596 27.2838 45.2538 27.8041 45.2538 28.2184C45.2538 29.2975 45.9367 29.7022 46.9562 29.7022C49.6012 29.7022 54.5066 26.908 55.2376 25.9927C55.3626 25.7422 55.5069 25.6555 55.6319 25.6555C55.8147 25.6555 55.9397 25.8193 55.9397 26.0505C55.9397 26.1758 55.9012 26.301 55.7954 26.4263C55.5454 26.7828 49.9764 30.049 46.7254 30.049C45.398 30.049 44.4554 29.4902 44.4554 27.9197C44.4554 27.5054 44.5132 27.0237 44.667 26.4359C44.7921 25.6459 45.0614 24.9136 45.0614 24.7498V24.7306C45.0614 24.7306 44.7536 25.0196 44.2727 25.4821C44.3593 25.7326 44.3593 25.9831 44.3593 26.1084V26.1951C44.1765 26.4648 43.9264 26.5901 43.6956 26.5901C43.609 26.5901 43.5321 26.5708 43.4455 26.5227L43.3878 26.3396C43.0993 26.6286 42.9742 26.7346 42.6183 27.0718ZM42.2625 25.694C41.2622 25.694 39.5212 27.9679 39.5212 28.44C39.5212 28.5074 39.5597 28.546 39.6463 28.546C40.0406 28.546 41.291 27.5439 42.5991 25.8C42.4933 25.7133 42.3875 25.694 42.2625 25.694Z" fill="#696969" stroke="#696969" stroke-width="0.4" stroke-miterlimit="10"/>
<path d="M59.3156 22.9288C59.3156 22.8036 59.2771 22.7168 59.152 22.7168C59.0462 22.7168 58.902 22.7554 58.7192 22.8614C58.3056 23.0733 57.5746 23.7189 56.9302 24.5667C56.4974 25.1545 56.3243 25.694 56.3243 26.2143C56.3243 27.5728 57.5554 28.7965 58.5461 30.4248C60.4601 29.047 62.1049 28.0257 64.2209 26.9851C65.4232 26.3781 67.0102 25.6073 68.4433 25.087C68.9242 25.1256 69.1743 25.5206 69.1743 25.8964C69.1743 26.1276 69.0685 26.3588 68.8665 26.4841C67.4334 26.6479 66.1638 27.2163 64.9807 27.7944C62.8359 28.835 60.8449 29.731 58.9116 31.1474C59.2867 31.8314 59.4502 32.6504 59.4502 33.4597C59.4502 36.5814 57.1033 40.1271 54.314 40.1271C54.0447 40.1271 53.7754 40.0885 53.5061 40.0211C52.6693 39.8284 52.3423 39.0191 52.3423 38.1905C52.3423 37.8822 52.4 37.5642 52.4866 37.2752C52.9194 35.8781 54.6699 33.4597 58.1806 30.8198C57.3919 29.4902 55.247 27.8041 55.247 25.8385C55.247 25.2508 55.4298 24.6535 55.9107 24.0079C56.6801 22.9674 57.8824 22.3411 58.3441 22.1098C58.825 21.8979 59.2001 21.8208 59.4887 21.8208C60.0465 21.8208 60.2966 22.1291 60.364 22.6301C60.3832 22.7361 60.3832 22.8421 60.3832 22.9674C60.3832 24.2392 59.7003 25.8385 59.7003 25.8675C59.5368 26.0987 59.2675 26.1758 58.9885 26.1758C58.5557 26.1758 58.094 25.906 58.094 25.4435C58.094 25.3857 58.094 25.3183 58.1133 25.2605C58.1037 25.2412 59.3156 23.5069 59.3156 22.9288ZM53.2656 37.5257C53.2079 37.7087 53.1598 37.94 53.1598 38.1519C53.1598 38.4891 53.2849 38.7975 53.6792 38.9034C53.862 38.9613 54.0543 38.9902 54.2659 38.9902C56.507 38.9902 58.7577 35.5698 58.7577 32.9491C58.7577 32.4095 58.6711 31.9085 58.4691 31.4653C55.324 33.8837 53.66 36.302 53.2656 37.5257Z" fill="#696969" stroke="#696969" stroke-width="0.4" stroke-miterlimit="10"/>
<path d="M98.2412 11.2804C98.6548 10.3844 99.9917 6.81947 99.9917 4.36257C99.9917 2.96552 99.5781 1.92495 98.3085 1.92495C98.1643 1.92495 98.02 1.94422 97.8757 1.96349C97.0389 2.08874 96.0482 2.44523 94.9614 3.00406C91.922 4.58418 88.3055 7.75405 86.2664 11.82C85.8913 12.5522 85.747 13.217 85.747 13.7951C85.747 15.4427 86.9782 16.5218 88.4498 17.254C89.8637 17.9863 91.5084 18.3813 92.5087 18.6318C93.2589 18.7956 93.7398 18.9209 93.7591 19.3159V19.3352C93.7591 19.6917 93.3839 19.8747 92.5087 19.9422C91.8258 19.9807 90.9313 20.3179 89.8925 20.8382C86.9782 22.3413 83.0731 25.463 79.9279 28.8834C76.9366 32.1303 74.5802 35.8879 74.5802 38.4219V38.7109C74.7244 40.6283 75.869 41.4183 77.6195 41.4183C84.9583 41.4183 103.243 27.4574 105.32 25.8773C105.407 25.7906 105.503 25.7713 105.59 25.7713C106.022 25.7713 106.465 26.4843 106.465 26.8793C106.465 26.9853 106.426 27.0624 106.34 27.1105C103.656 28.4691 85.4969 41.9001 77.533 41.9001C75.3689 41.9001 73.955 40.9462 73.7915 38.4797C73.7915 38.3737 73.7722 38.2485 73.7722 38.1425C73.7722 35.3484 76.1383 31.6389 79.2643 28.2667C82.4672 24.7693 86.478 21.5801 89.4789 20.0193C90.1426 19.682 90.7485 19.4315 91.3064 19.2485C90.3542 18.998 89.1423 18.6222 88.0458 18.0826C86.2953 17.1866 84.8044 15.8763 84.8044 13.8722C84.8044 13.14 84.9872 12.3114 85.4488 11.396C87.5937 7.14706 91.3737 3.83266 94.5574 2.18509C95.7212 1.57809 96.8273 1.18306 97.741 1.03854C97.9526 1 98.1546 1 98.3278 1C100.28 1 100.905 2.70537 100.905 4.91176C100.905 8.62119 99.1357 13.6988 98.6836 14.5177C98.3951 14.9513 97.6256 15.4331 96.9812 15.4331C96.3945 15.4331 95.9232 15.0766 95.9232 14.0167V13.824C95.8847 13.8048 97.4717 12.8798 98.2412 11.2804ZM92.8069 19.2966C92.7876 19.2966 92.7684 19.2966 92.7491 19.3159C92.7876 19.4026 92.8069 19.4412 92.8357 19.4412V19.3737C92.8357 19.3256 92.8357 19.2966 92.8069 19.2966Z" fill="#696969" stroke="#696969" stroke-width="0.4" stroke-miterlimit="10"/>
<path d="M111.601 22.1775C111.726 22.1775 111.832 22.1775 111.937 22.1968C112.745 22.3413 113.063 22.717 113.063 23.2373C113.063 24.8656 109.716 27.8043 108.985 28.3824C109.321 28.3824 109.398 28.4016 109.754 28.4883C110.985 28.7196 112.12 29.3458 112.418 30.82C114.621 29.1917 117.199 27.4285 120.151 25.5304C120.209 25.4919 120.277 25.463 120.334 25.463C120.546 25.463 120.69 25.6942 120.69 25.8966C120.69 26.0025 120.652 26.1085 120.565 26.1663C117.401 28.1704 114.765 30.107 112.476 31.8124C112.245 36.0035 103.762 44.6075 100.501 44.8098C100.444 44.8098 100.357 44.8291 100.251 44.8291C100.04 44.8291 99.8184 44.7906 99.7126 44.7231C99.5298 44.5786 99.4048 44.3088 99.4048 43.9909C99.4048 43.8078 99.4433 43.5958 99.5298 43.3646C100.944 39.2409 108.581 33.7008 111.928 31.1765C111.822 29.818 110.6 29.4711 109.619 29.2784C109.244 29.2206 108.869 29.1724 108.513 29.1724C108.263 29.1724 107.994 29.1917 107.782 29.211C107.696 29.211 107.619 29.1917 107.532 29.1242C107.388 29.211 107.244 29.2495 107.138 29.288C107.08 29.3073 107.013 29.3073 106.974 29.3073C106.638 29.3073 106.455 29.1242 106.436 29.0183C106.455 28.9604 106.647 28.7678 106.955 28.5847C106.936 28.5461 106.917 28.5269 106.917 28.498C106.917 28.4691 106.917 28.4594 106.936 28.4594C107.744 28.2667 109.87 26.4168 111.12 24.8174C111.678 24.1045 111.909 23.6709 111.909 23.4397C111.909 23.2951 111.803 23.2277 111.659 23.2277C111.322 23.2277 110.706 23.4975 110.062 23.8347C108.648 24.5862 107.503 25.3377 106.753 26.3301C106.359 26.8311 106.417 27.4767 106.128 27.6405C105.945 27.8235 105.628 27.891 105.32 27.891C104.801 27.891 104.281 27.679 104.281 27.3707C104.281 27.3322 104.301 27.2647 104.32 27.2262C104.32 27.2358 108.985 22.1775 111.601 22.1775ZM100.617 43.6151C100.559 43.7982 100.492 44.1739 100.492 44.2414C103.781 43.7211 111.081 36.0517 111.822 32.323C109.167 34.3367 101.761 40.2814 100.617 43.6151Z" fill="#696969" stroke="#696969" stroke-width="0.4" stroke-miterlimit="10"/>
<path d="M123.258 24.7981C123.258 26.5516 120.45 27.6693 119.873 27.9005C119.873 28.0258 119.854 28.1703 119.854 28.3148C119.854 28.8158 119.94 29.4035 120.19 29.7697C120.459 30.184 120.921 30.3767 121.498 30.3767C124.365 30.3767 130.107 26.041 130.126 26.0217C130.212 25.9639 130.289 25.935 130.376 25.935C130.645 25.935 130.876 26.1855 130.876 26.436C130.876 26.542 130.818 26.648 130.713 26.725C130.674 26.7443 125.076 30.791 121.662 30.791C120.767 30.791 120.017 30.5212 119.565 29.8082C119.171 29.2205 119.026 28.6038 119.026 27.9968C119.026 26.831 119.613 25.723 120.296 24.9137C120.671 24.4801 121.085 24.1429 121.46 23.9309C121.748 23.7671 122.018 23.6804 122.287 23.6804C122.431 23.6804 122.576 23.6997 122.701 23.7671C122.989 23.8924 123.201 24.1622 123.239 24.5572C123.239 24.6535 123.258 24.721 123.258 24.7981ZM121.998 24.7981C121.998 24.7595 121.979 24.7306 121.941 24.7306C121.527 24.7981 121.133 25.5689 120.171 26.8118C121.498 25.6748 121.998 24.9908 121.998 24.7981Z" fill="#696969" stroke="#696969" stroke-width="0.4" stroke-miterlimit="10"/>
<path d="M135.281 24.7789C134.723 25.4245 134.156 26.1374 133.636 26.8215C132.28 28.5462 131.097 30.0877 130.058 30.0877C129.953 30.0877 129.847 30.0877 129.751 30.0492C129.395 29.9432 129.145 29.7409 129 29.4422C128.875 29.1917 128.818 28.8834 128.818 28.5654C128.818 26.2723 131.684 22.6303 133.646 22.3606C133.877 22.322 134.079 22.3028 134.252 22.3028C135.06 22.3028 135.416 22.7363 135.733 23.0928C136.714 22.1582 137.734 21.5127 138.753 21.5127C138.898 21.5127 139.023 21.532 139.167 21.5512C140.042 21.715 140.398 22.5725 140.398 23.8443C140.398 24.4899 140.312 25.2221 140.167 26.0122C139.831 27.891 136.233 36.071 135.57 38.287C135.608 38.6243 135.637 39.0193 135.637 39.4721C135.637 42.3048 134.925 47.1608 133.329 47.1608C133.204 47.1608 133.059 47.1415 132.934 47.074C132.723 46.9488 132.626 46.679 132.626 46.2647C132.626 45.0122 133.463 42.5938 134.29 39.8672C134.848 38.6628 139.177 27.1973 139.177 23.6227C139.177 22.9579 139.032 22.5822 138.676 22.5822H138.571C138.446 22.5629 138.321 22.5436 138.195 22.5436C137.464 22.5436 136.945 23.0446 136.099 23.9214C136.137 24.1334 136.156 24.355 136.156 24.5477C136.156 25.0102 136.07 25.357 136.07 25.357C135.983 25.4823 135.801 25.5497 135.637 25.5497C135.425 25.5497 135.243 25.4437 135.243 25.1932V25.174C135.214 25.1547 135.262 25.0102 135.281 24.7789ZM134.762 23.5746C134.637 23.5746 134.473 23.6131 134.137 23.6998C132.434 24.0563 130.106 28.0548 130.106 29.0568C130.106 29.1628 130.126 29.2206 130.164 29.2688C130.203 29.288 130.251 29.288 130.289 29.288C130.876 29.288 131.79 28.18 132.992 26.6385C133.656 25.7809 134.319 24.5766 135.05 23.7865C134.925 23.6324 134.887 23.5746 134.762 23.5746ZM133.281 46.2358C133.281 46.3033 133.281 46.3225 133.3 46.3418H133.338C133.8 46.3418 134.521 42.7191 134.819 40.4452C134.098 42.8154 133.281 45.6481 133.281 46.2358Z" fill="#696969" stroke="#696969" stroke-width="0.4" stroke-miterlimit="10"/>
<path d="M142.226 29.7986C142.226 30.2322 142.37 30.5116 142.687 30.5116C142.726 30.5116 142.793 30.4923 142.832 30.4923C144.082 30.1551 147.343 25.5303 147.41 24.3645C147.477 23.9502 147.679 23.7768 147.891 23.7768C148.266 23.7768 148.699 24.2585 148.699 24.7981C148.699 24.8174 148.324 26.4071 148.324 27.7945C148.324 28.6713 148.468 29.4421 148.949 29.6926C149.036 29.7312 149.161 29.7504 149.286 29.7504C150.95 29.7504 155.547 26.0217 155.566 26.0024C155.672 25.935 155.778 25.8965 155.855 25.8965C156.105 25.8965 156.288 26.1277 156.288 26.3975C156.288 26.4553 156.269 26.5227 156.249 26.6094C156.249 26.6287 151.652 30.2996 149.343 30.2996C149.093 30.2996 148.862 30.2611 148.68 30.1551C147.785 29.6733 147.554 28.4015 147.554 27.1779V27.0141C146.448 28.9315 144.371 31.6774 142.726 31.6774C142.514 31.6774 142.312 31.6389 142.12 31.5329C141.408 31.1571 141.139 30.3863 141.139 29.4517C141.139 26.9081 143.072 23.1794 143.072 23.1602C143.197 22.7844 143.505 22.6206 143.822 22.6206C144.323 22.6206 144.842 23.0156 144.842 23.5552C144.842 23.6226 144.842 23.6804 144.823 23.7672C143.216 26.1759 142.226 28.6135 142.226 29.7986Z" fill="#696969" stroke="#696969" stroke-width="0.4" stroke-miterlimit="10"/>
<path d="M156.316 28.8835C156.316 29.317 156.442 29.6735 156.73 29.8662C156.836 29.9529 156.999 29.9722 157.211 29.9722C159.644 29.9722 168.859 25.993 168.859 25.993C169.022 25.8677 169.167 25.8292 169.32 25.8292C169.696 25.8292 169.965 26.1183 169.965 26.3302C169.965 26.3688 169.965 26.4169 169.926 26.4555C169.907 26.4555 160.318 30.6467 156.845 30.6467C156.326 30.6467 155.932 30.5599 155.739 30.3383C155.153 29.9626 154.951 29.2592 154.951 28.4595C154.951 27.0047 155.653 25.2318 156.028 24.5863C156.191 24.2298 156.49 24.0853 156.797 24.0853C157.23 24.0853 157.673 24.3936 157.673 24.8368C157.673 24.8946 157.673 24.9621 157.653 25.0199C157.644 25.0102 156.316 27.4286 156.316 28.8835ZM158.836 20.8865C158.836 21.031 158.817 21.1756 158.75 21.3201C158.606 21.7537 158.25 22.0523 157.923 22.0523C157.855 22.0523 157.798 22.0523 157.73 22.0331C157.461 21.9271 157.298 21.638 157.298 21.2815C157.298 21.137 157.317 20.9925 157.384 20.848C157.548 20.4144 157.904 20.1157 158.24 20.1157C158.298 20.1157 158.346 20.1157 158.404 20.135C158.663 20.241 158.836 20.53 158.836 20.8865Z" fill="#696969" stroke="#696969" stroke-width="0.4" stroke-miterlimit="10"/>
<path d="M172.677 24.7981C172.677 26.5516 169.869 27.6693 169.292 27.9005C169.292 28.0258 169.272 28.1703 169.272 28.3148C169.272 28.8158 169.359 29.4035 169.609 29.7697C169.878 30.184 170.34 30.3767 170.917 30.3767C173.783 30.3767 179.526 26.041 179.545 26.0217C179.631 25.9639 179.708 25.935 179.795 25.935C180.064 25.935 180.295 26.1855 180.295 26.436C180.295 26.542 180.237 26.648 180.132 26.725C180.093 26.7443 174.495 30.791 171.081 30.791C170.186 30.791 169.436 30.5212 168.984 29.8082C168.59 29.2205 168.445 28.6038 168.445 27.9968C168.445 26.831 169.032 25.723 169.715 24.9137C170.09 24.4801 170.504 24.1429 170.879 23.9309C171.167 23.7671 171.437 23.6804 171.706 23.6804C171.85 23.6804 171.994 23.6997 172.12 23.7671C172.408 23.8924 172.62 24.1622 172.658 24.5572C172.658 24.6535 172.677 24.721 172.677 24.7981ZM171.408 24.7981C171.408 24.7595 171.389 24.7306 171.35 24.7306C170.936 24.7981 170.542 25.5689 169.58 26.8118C170.908 25.6748 171.408 24.9908 171.408 24.7981Z" fill="#696969" stroke="#696969" stroke-width="0.4" stroke-miterlimit="10"/>
<path d="M177.938 36.9861C177.938 37.6317 178.025 38.1327 178.169 38.441C178.381 38.8746 178.689 39.0865 179.064 39.0865C182.122 39.0865 189.961 26.4841 189.98 26.4456C190.192 26.1372 190.413 26.012 190.606 26.012C190.836 26.012 191 26.1758 191 26.4745V26.4937C190.981 26.5323 182.767 39.3852 178.996 39.3852C178.438 39.3852 177.977 39.0962 177.64 38.4313C177.429 37.9978 177.352 37.3041 177.352 36.4755C177.352 31.0221 181.391 18.439 184.152 14.6235C184.815 13.477 185.479 12.5231 186.047 11.8487C186.691 11.1164 187.278 10.7021 187.749 10.7021H187.768C188.124 10.7214 188.393 10.9527 188.557 11.3862C188.643 11.6175 188.682 11.8872 188.682 12.1956C188.682 15.9435 182.757 24.7402 180.237 26.4263C178.708 31.3593 177.938 34.9628 177.938 36.9861ZM187.903 11.9065C187.903 11.8005 187.884 11.7234 187.864 11.656C187.807 11.5307 187.759 11.4729 187.72 11.4729H187.701C187.489 11.4729 187.114 11.8102 186.643 12.3497C186.104 12.976 185.479 13.8913 184.835 14.9993C183.546 17.2057 181.882 21.8112 180.901 24.5571C182.18 23.3624 187.903 14.1129 187.903 11.9065Z" fill="#696969" stroke="#696969" stroke-width="0.4" stroke-miterlimit="10"/>
<path d="M62.0001 46.6572H62.1444C64.5586 46.6572 69.9063 47.139 71.5222 48.9311C71.8108 49.2683 71.9358 49.6633 71.9358 50.1161C71.9358 55.2997 54.4497 68.1816 52.0355 70.0315C47.6688 73.4037 45.5047 75.6582 41.9748 77.6526C44.1004 77.3636 48.1112 77.0071 52.4395 77.0071C60.2976 77.0071 69.1561 78.1729 69.4543 82.9229C69.4158 83.1734 68.9926 83.3565 68.6848 83.3565C68.4732 83.3565 68.2905 83.2698 68.2905 83.0675C68.2905 83.0289 68.2905 83.0096 68.3097 82.9615C68.2905 79.0497 61.9424 77.9032 54.8922 77.9032C48.1305 77.9032 40.7532 78.9437 37.7139 79.5507L37.483 79.57C35.8383 80.3601 34.4917 80.8225 33.5491 80.8225H33.4914C32.7797 80.8033 32.4526 80.6106 32.4526 80.283V80.2637C32.4526 79.8494 34.3667 79.2617 37.3195 78.7607C40.9745 76.9686 46.5338 73.8276 51.7951 69.7617C53.7668 68.2586 70.7624 54.2881 70.7624 50.3667C70.7624 50.1162 70.695 49.9042 70.5508 49.7404C69.2234 48.2373 64.4816 48.0543 62.2694 48.0543H61.8943C53.9688 48.1121 43.8407 50.1161 41.0322 53.5558C41.388 53.7389 41.5131 53.9508 41.5131 54.1628C41.5131 54.6831 40.5993 55.1841 39.9357 55.1841C39.5413 55.1841 39.2528 55.0203 39.2528 54.5964C39.2528 54.4518 39.2913 54.2592 39.3778 54.0568C41.2822 49.8656 53.2667 46.7247 62.0001 46.6572Z" fill="#696969" stroke="#696969" stroke-width="0.4" stroke-miterlimit="10"/>
<path d="M67.4826 67.5359C65.8379 69.0968 63.9719 70.8504 63.0774 70.8504C63.0582 70.8504 63.0101 70.8311 62.9716 70.8311C62.7408 70.7925 62.5773 70.6673 62.433 70.4939C62.2695 70.2819 62.2021 70.0314 62.2021 69.7423C62.2021 69.6364 62.2021 69.5304 62.2214 69.434C62.2598 69.0968 62.3849 68.6825 62.5965 68.2682C63.2024 66.9386 64.4913 65.3681 66.0879 64.896C66.5015 64.7707 66.8766 64.7322 67.2133 64.7322C67.8577 64.7322 68.3386 64.9442 68.6464 65.2525C69.2716 64.7322 70.0026 64.2119 70.3969 64.2119C70.4643 64.2119 70.522 64.2312 70.5604 64.2505C70.8298 64.289 70.974 64.5588 70.974 65.0212C70.974 65.5223 70.8105 66.2256 70.4546 67.1216C70.2238 67.7479 70.118 68.2682 70.118 68.6825C70.118 69.7616 70.8009 70.1663 71.8205 70.1663C74.4655 70.1663 79.3708 67.3722 80.1018 66.4568C80.2269 66.2063 80.3711 66.1196 80.4962 66.1196C80.6789 66.1196 80.804 66.2834 80.804 66.5147C80.804 66.6399 80.7655 66.7652 80.6597 66.8904C80.4096 67.2469 74.8406 70.5131 71.5896 70.5131C70.2623 70.5131 69.3197 69.9543 69.3197 68.3838C69.3197 67.9695 69.3774 67.4878 69.5313 66.9C69.6563 66.11 69.9257 65.3777 69.9257 65.2139V65.1947C69.9257 65.1947 69.6179 65.4837 69.1369 65.9462C69.2235 66.1967 69.2235 66.4472 69.2235 66.5725V66.6592C69.0408 66.929 68.7907 67.0542 68.5599 67.0542C68.4733 67.0542 68.3963 67.0349 68.3098 66.9868L68.2521 66.8037C67.9635 67.0927 67.8385 67.1987 67.4826 67.5359ZM67.1267 66.1582C66.1264 66.1582 64.3855 68.432 64.3855 68.9041C64.3855 68.9715 64.424 69.0101 64.5105 69.0101C64.9049 69.0101 66.1553 68.0081 67.4634 66.2641C67.3576 66.1774 67.2518 66.1582 67.1267 66.1582Z" fill="#696969" stroke="#696969" stroke-width="0.4" stroke-miterlimit="10"/>
<path d="M81.0733 71.226C81.0733 71.3127 81.0925 71.3512 81.1118 71.3512C81.131 71.3512 81.1502 71.332 81.1695 71.3127C81.6889 70.9177 85.767 63.0652 86.1614 62.2752C86.1806 62.2559 86.3922 61.7164 86.3922 61.7164C86.4788 61.6489 86.6423 61.6296 86.825 61.6296C87.2386 61.6296 87.7772 61.7742 87.7772 62.0921V62.1307L87.4695 62.7376C87.3637 63.0267 86.9693 63.8168 86.9693 64.6165C86.9693 65.5992 87.5753 66.5723 90.028 66.5723C90.3838 66.5723 90.7589 66.5531 91.1725 66.5145C91.4611 66.6012 91.5861 66.7843 91.5861 66.9481C91.5861 67.1312 91.4418 67.3239 91.1725 67.3431C87.5079 67.3431 86.3922 65.9846 86.1999 64.6165C84.4109 67.8827 81.333 73.2204 80.1692 73.2204C80.1018 73.2204 80.0441 73.2011 80.0057 73.1819C79.5728 73.0951 79.4189 72.4303 79.4189 71.4765C79.4189 69.2894 80.2942 65.5414 80.8713 63.8071C81.0156 63.4121 81.2849 63.2676 81.6023 63.2676C82.1025 63.2676 82.6603 63.7011 82.8719 64.1829C82.8815 64.1829 81.0733 70.2625 81.0733 71.226Z" fill="#696969" stroke="#696969" stroke-width="0.4" stroke-miterlimit="10"/>
<path d="M94.26 67.5359C92.6152 69.0968 90.7493 70.8504 89.8548 70.8504C89.8355 70.8504 89.7874 70.8311 89.749 70.8311C89.5181 70.7925 89.3546 70.6673 89.2104 70.4939C89.0468 70.2819 88.9795 70.0314 88.9795 69.7423C88.9795 69.6364 88.9795 69.5304 88.9987 69.434C89.0372 69.0968 89.1622 68.6825 89.3738 68.2682C89.9798 66.9386 91.2687 65.3681 92.8653 64.896C93.2789 64.7707 93.654 64.7322 93.9907 64.7322C94.6351 64.7322 95.116 64.9442 95.4238 65.2525C96.049 64.7322 96.78 64.2119 97.1743 64.2119C97.2416 64.2119 97.2993 64.2312 97.3378 64.2505C97.6071 64.289 97.7514 64.5588 97.7514 65.0212C97.7514 65.5223 97.5879 66.2256 97.232 67.1216C97.0012 67.7479 96.8954 68.2682 96.8954 68.6825C96.8954 69.7616 97.5783 70.1663 98.5978 70.1663C101.243 70.1663 106.148 67.3722 106.879 66.4568C107.004 66.2063 107.149 66.1196 107.274 66.1196C107.456 66.1196 107.581 66.2834 107.581 66.5147C107.581 66.6399 107.543 66.7652 107.437 66.8904C107.187 67.2469 101.618 70.5131 98.367 70.5131C97.0396 70.5131 96.0971 69.9543 96.0971 68.3838C96.0971 67.9695 96.1548 67.4878 96.3087 66.9C96.4337 66.11 96.703 65.3777 96.703 65.2139V65.1947C96.703 65.1947 96.3952 65.4837 95.9143 65.9462C96.0009 66.1967 96.0009 66.4472 96.0009 66.5725V66.6592C95.8181 66.929 95.5681 67.0542 95.3372 67.0542C95.2506 67.0542 95.1737 67.0349 95.0871 66.9868L95.0294 66.8037C94.7409 67.0927 94.6158 67.1987 94.26 67.5359ZM93.9041 66.1582C92.9038 66.1582 91.1629 68.432 91.1629 68.9041C91.1629 68.9715 91.2013 69.0101 91.2879 69.0101C91.6823 69.0101 92.9326 68.0081 94.2407 66.2641C94.1349 66.1774 94.0291 66.1582 93.9041 66.1582Z" fill="#696969" stroke="#696969" stroke-width="0.4" stroke-miterlimit="10"/>
<path d="M105.687 77.4502C105.687 78.0958 105.773 78.5968 105.917 78.9051C106.129 79.3387 106.437 79.5506 106.812 79.5506C109.871 79.5506 117.709 66.9482 117.729 66.9097C117.94 66.6013 118.162 66.4761 118.354 66.4761C118.585 66.4761 118.748 66.6399 118.748 66.9386V66.9578C118.729 66.9964 110.515 79.8493 106.745 79.8493C106.187 79.8493 105.725 79.5603 105.388 78.8955C105.177 78.4619 105.1 77.7682 105.1 76.9396C105.1 71.4862 109.14 58.9031 111.9 55.0877C112.564 53.9411 113.227 52.9873 113.795 52.3128C114.439 51.5806 115.026 51.1663 115.497 51.1663H115.517C115.872 51.1855 116.142 51.4168 116.305 51.8503C116.392 52.0816 116.43 52.3514 116.43 52.6597C116.43 56.4076 110.505 65.2043 107.985 66.8904C106.456 71.8235 105.687 75.4269 105.687 77.4502ZM115.651 52.3706C115.651 52.2646 115.632 52.1876 115.613 52.1201C115.555 51.9949 115.507 51.9371 115.468 51.9371H115.449C115.238 51.9371 114.862 52.2743 114.391 52.8138C113.853 53.4401 113.227 54.3554 112.583 55.4634C111.294 57.6698 109.63 62.2753 108.649 65.0212C109.938 63.8265 115.651 54.577 115.651 52.3706Z" fill="#696969" stroke="#696969" stroke-width="0.4" stroke-miterlimit="10"/>
<path d="M122.259 66.7461C121.951 67.0544 121.846 67.1604 121.49 67.4976C119.826 69.0392 117.979 70.7927 117.104 70.7927C117.065 70.7927 117.017 70.7735 116.979 70.7735C116.748 70.7349 116.565 70.629 116.44 70.4652C116.277 70.2532 116.209 69.9642 116.209 69.6269C116.209 69.5691 116.209 69.4824 116.209 69.3957C116.267 69.0392 116.392 68.6442 116.584 68.2106C117.21 66.9003 118.498 65.3394 120.076 64.8577C120.537 64.7324 120.913 64.6746 121.24 64.6746C121.884 64.6746 122.346 64.8866 122.654 65.1949C123.298 64.6939 124.01 64.1736 124.423 64.1736C124.481 64.1736 124.529 64.1929 124.568 64.2121C124.837 64.2507 124.981 64.5204 124.981 64.9829C124.981 65.4839 124.818 66.1873 124.462 67.0641C124.317 67.4976 124.25 67.9408 124.25 68.3166C124.25 68.6538 124.289 68.9621 124.317 69.1741C124.587 69.6366 125.125 70.0509 126.164 70.0509C126.876 70.0509 127.79 69.8678 129.011 69.4053C135.273 67.093 142.842 63.9231 149.479 63.6533C149.893 63.634 150.268 63.634 150.643 63.634C152.643 63.634 154.259 63.8845 155.51 64.2796C157.905 64.9926 159.107 66.1102 159.376 66.6787C159.463 66.7846 159.482 66.8617 159.482 66.9677C159.482 67.2567 159.193 67.5265 158.895 67.5265C158.789 67.5265 158.684 67.488 158.607 67.4013C158.395 66.9388 157.337 65.6285 155.173 64.9829C153.865 64.5879 152.153 64.1061 150.018 64.1061C149.806 64.1061 149.604 64.1254 149.373 64.1254C142.265 64.4145 135.59 67.5651 129.011 70.0027C127.655 70.5037 126.645 70.706 125.847 70.706C123.702 70.706 123.394 69.2223 123.394 68.3744V67.9697C123.394 67.6132 123.433 67.2375 123.538 66.8424C123.663 66.0524 123.952 65.3201 123.952 65.1756L123.933 65.1563C123.914 65.1563 123.596 65.4647 123.125 65.9079C123.231 66.1584 123.25 66.4281 123.25 66.5341L123.231 66.6016C123.067 66.8906 122.798 66.9966 122.567 66.9966C122.48 66.9966 122.403 66.9773 122.317 66.9581C122.326 66.9484 122.307 66.9484 122.259 66.7461ZM121.134 66.1006C120.153 66.1006 118.393 68.3744 118.393 68.8465V68.8658C118.412 68.9236 118.45 68.9718 118.518 68.9718C118.893 68.9718 120.162 67.9505 121.451 66.1969C121.365 66.1391 121.259 66.1006 121.134 66.1006Z" fill="#696969" stroke="#696969" stroke-width="0.4" stroke-miterlimit="10"/>
</svg>
