<svg width="878" height="128" viewBox="0 0 878 128" fill="none" xmlns="http://www.w3.org/2000/svg">
<path d="M33.7112 5.75191C34.2934 4.77117 34.902 4.37357 35.4841 4.37357C36.4102 4.37357 37.0982 5.22178 37.0982 6.14951C37.0982 6.54711 36.9924 6.89169 36.7542 7.23628C36.4632 8.03147 33.3672 12.2725 32.8115 19.9064C30.9328 45.6442 13.0188 99.1609 6.32415 112.706C6.5623 112.6 6.77399 112.414 7.01213 112.255C14.2889 106.821 49.5878 97.8621 67.1314 97.8621C70.439 97.8621 73.138 98.1536 74.858 98.8958C75.7841 99.2934 76.1281 99.9296 76.1281 100.566C76.1281 101.546 75.3343 102.448 74.4081 102.448C74.3023 102.448 74.1171 102.448 74.0112 102.395C70.8094 101.308 68.8513 100.274 64.8028 100.274H64.4588C43.7928 100.672 16.1147 106.636 8.3881 114.084C7.25028 114.932 5.98016 116.549 4.84234 117.053C3.62513 117.556 2.64608 117.795 1.9581 117.795C0.979041 117.795 0.529205 117.344 0.529205 116.708C0.529205 115.86 1.50826 114.535 3.28114 113.66H3.33406C7.85888 113.66 23.8148 49.6467 30.5624 19.3233L31.5943 15.3738L30.9593 16.116C30.7211 16.275 30.4565 16.3545 30.1654 16.3545C29.1864 16.3545 28.0486 15.6123 27.9427 14.4726C28.9747 13.7569 32.6263 9.3568 33.7112 5.75191Z" fill="white" stroke="white" stroke-width="0.4" stroke-miterlimit="10"/>
<path d="M40.2735 79.7316C40.2735 80.9244 40.6704 81.6931 41.5437 81.6931C41.6495 81.6931 41.8347 81.6401 41.9406 81.6401C45.3805 80.7124 54.3507 67.9892 54.536 64.7819C54.6947 63.6422 55.2769 63.165 55.859 63.165C56.891 63.165 58.0817 64.4904 58.0817 65.9747C58.0817 66.0277 57.0498 70.4013 57.0498 74.2183C57.0498 76.6304 57.4467 78.7509 58.7697 79.44C59.0079 79.5461 59.3519 79.5991 59.6958 79.5991C64.2736 79.5991 76.9219 69.3411 76.9748 69.288C77.2659 69.1025 77.557 68.9965 77.7687 68.9965C78.4566 68.9965 78.9594 69.6326 78.9594 70.3748C78.9594 70.5338 78.9065 70.7194 78.8536 70.958C78.8536 71.011 66.2052 81.11 59.8546 81.11C59.1666 81.11 58.5316 81.0039 58.0288 80.7124C55.5679 79.387 54.9329 75.8882 54.9329 72.5218V72.0712C51.8899 77.346 46.1743 84.9004 41.6495 84.9004C41.0674 84.9004 40.5117 84.7944 39.9825 84.5028C38.0508 83.469 37.2834 81.3485 37.2834 78.7774C37.2834 71.7797 42.6021 61.5216 42.6021 61.4686C42.9461 60.4349 43.7928 59.9843 44.666 59.9843C46.042 59.9843 47.4709 61.071 47.4709 62.5554C47.4709 62.7409 47.4709 62.9 47.418 63.1385C43.0255 69.7652 40.2735 76.4713 40.2735 79.7316Z" fill="white" stroke="white" stroke-width="0.4" stroke-miterlimit="10"/>
<path d="M88.6176 63.4566C88.6176 63.2711 88.5647 63.165 88.3266 63.165C85.2306 64.5964 77.6893 72.3363 77.6893 77.5581C77.6893 78.1412 77.7422 78.6449 77.9803 79.175C78.3772 80.1557 79.1182 80.9509 80.3354 81.2955C80.7323 81.4811 81.3144 81.5341 81.8701 81.5341C83.2461 81.5341 85.0189 81.1895 86.7389 80.7389C91.3166 79.5461 96.8205 76.2593 105.738 69.5531C106.082 69.3146 106.479 69.2085 106.823 69.2085C107.564 69.2085 108.199 69.6061 108.199 70.1363C108.199 70.4278 108.093 70.7194 107.696 70.9845C98.4876 77.9292 91.6871 81.428 86.8712 82.6738C85.2571 83.1245 83.8282 83.31 82.6375 83.31C81.6055 83.31 80.6793 83.204 79.8855 82.9124C78.0068 82.2763 76.7896 81.0304 76.1545 79.4666C75.7576 78.4328 75.5195 77.346 75.5195 76.1532C75.5195 69.2085 82.3199 60.6734 88.8558 60.6734H89.4379C89.8348 60.6734 90.2317 60.7795 90.6287 60.912C91.7665 61.4951 92.1634 62.5819 92.1634 63.7217C92.1634 65.9482 90.7874 68.4664 90.7345 68.5459C90.4434 68.7844 89.8877 68.9435 89.2527 68.9435C87.9296 68.9435 86.2097 68.3073 86.2097 67.1675C86.6066 66.5049 88.6176 64.3313 88.6176 63.4566Z" fill="white" stroke="white" stroke-width="0.4" stroke-miterlimit="10"/>
<path d="M115.026 72.2303C110.501 76.5243 105.367 81.3485 102.907 81.3485C102.854 81.3485 102.748 81.2955 102.615 81.2955C101.98 81.1895 101.531 80.8449 101.134 80.3678C100.684 79.7846 100.499 79.0955 100.499 78.3003C100.499 78.0087 100.499 77.7171 100.552 77.452C100.657 76.5243 101.001 75.3845 101.583 74.2448C103.251 70.5869 106.796 66.2663 111.189 64.9675C112.327 64.6229 113.359 64.5169 114.285 64.5169C116.058 64.5169 117.381 65.1 118.227 65.9482C119.947 64.5169 121.958 63.0855 123.043 63.0855C123.202 63.0855 123.387 63.1385 123.493 63.1915C124.234 63.2976 124.631 64.0397 124.631 65.3121C124.631 66.6904 124.181 68.6254 123.202 71.0905C122.567 72.8134 122.276 74.2448 122.276 75.3845C122.276 78.3533 124.155 79.4665 126.96 79.4665C134.236 79.4665 147.731 71.7796 149.742 69.2615C150.086 68.5724 150.483 68.3338 150.827 68.3338C151.33 68.3338 151.674 68.7844 151.674 69.4206C151.674 69.7652 151.568 70.1097 151.277 70.4543C150.589 71.4351 135.268 80.4208 126.324 80.4208C122.673 80.4208 120.08 78.8834 120.08 74.5628C120.08 73.4231 120.238 72.0977 120.662 70.4808C121.006 68.3073 121.747 66.2928 121.747 65.8422V65.7892C121.747 65.7892 120.9 66.5844 119.577 67.8567C119.815 68.5459 119.815 69.235 119.815 69.5796V69.8182C119.312 70.5604 118.624 70.9049 117.989 70.9049C117.751 70.9049 117.539 70.8519 117.301 70.7194L117.143 70.2158C116.349 71.011 116.005 71.3025 115.026 72.2303ZM114.047 68.4398C111.295 68.4398 106.505 74.6954 106.505 75.9942C106.505 76.1797 106.611 76.2858 106.849 76.2858C107.934 76.2858 111.374 73.5291 114.973 68.7314C114.682 68.4928 114.391 68.4398 114.047 68.4398Z" fill="white" stroke="white" stroke-width="0.4" stroke-miterlimit="10"/>
<path d="M160.962 60.8325C160.962 60.4879 160.856 60.2493 160.512 60.2493C160.221 60.2493 159.824 60.3553 159.321 60.6469C158.183 61.2301 156.172 63.006 154.4 65.3386C153.209 66.9555 152.732 68.4398 152.732 69.8712C152.732 73.6086 156.119 76.9749 158.845 81.4545C164.111 77.6641 168.635 74.8544 174.457 71.9917C177.765 70.3218 182.131 68.2013 186.073 66.7699C187.396 66.8759 188.084 67.9627 188.084 68.9965C188.084 69.6326 187.793 70.2688 187.238 70.6134C183.295 71.064 179.802 72.6279 176.547 74.2183C170.647 77.081 165.169 79.5461 159.85 83.4425C160.882 85.3245 161.332 87.5775 161.332 89.8041C161.332 98.3922 154.876 108.147 147.202 108.147C146.461 108.147 145.72 108.041 144.979 107.855C142.677 107.325 141.778 105.098 141.778 102.819C141.778 101.971 141.936 101.096 142.175 100.301C143.365 96.4572 148.181 89.8041 157.839 82.5413C155.67 78.8834 149.769 74.2448 149.769 68.8374C149.769 67.2205 150.272 65.5771 151.595 63.8012C153.712 60.9385 157.019 59.2156 158.289 58.5794C159.612 57.9963 160.644 57.7842 161.438 57.7842C162.973 57.7842 163.661 58.6324 163.846 60.0108C163.899 60.3023 163.899 60.5939 163.899 60.9385C163.899 64.4373 162.02 68.8374 162.02 68.917C161.57 69.5531 160.83 69.7652 160.062 69.7652C158.871 69.7652 157.601 69.023 157.601 67.7507C157.601 67.5916 157.601 67.4061 157.654 67.247C157.628 67.194 160.962 62.4229 160.962 60.8325ZM144.318 100.99C144.159 101.493 144.027 102.13 144.027 102.713C144.027 103.64 144.371 104.489 145.456 104.78C145.958 104.939 146.488 105.019 147.07 105.019C153.235 105.019 159.427 95.609 159.427 88.3992C159.427 86.9149 159.189 85.5365 158.633 84.3172C149.981 90.9704 145.403 97.6235 144.318 100.99Z" fill="white" stroke="white" stroke-width="0.4" stroke-miterlimit="10"/>
<path d="M268.049 28.7861C269.187 26.321 272.865 16.5136 272.865 9.7544C272.865 5.91095 271.727 3.04825 268.234 3.04825C267.838 3.04825 267.441 3.10126 267.044 3.15428C264.742 3.49886 262.016 4.4796 259.026 6.01698C250.664 10.3641 240.715 19.0847 235.105 30.2705C234.073 32.2849 233.676 34.1139 233.676 35.7043C233.676 40.2369 237.063 43.2056 241.112 45.2201C245.002 47.2346 249.527 48.3214 252.278 49.0106C254.342 49.4612 255.665 49.8058 255.718 50.8925V50.9455C255.718 51.9263 254.686 52.4299 252.278 52.6155C250.4 52.7215 247.939 53.6492 245.081 55.0806C237.063 59.2156 226.32 67.8037 217.668 77.2135C209.438 86.1462 202.955 96.4837 202.955 103.455V104.25C203.352 109.525 206.501 111.698 211.317 111.698C231.507 111.698 281.809 73.2905 287.524 68.9435C287.763 68.7049 288.027 68.6519 288.265 68.6519C289.456 68.6519 290.673 70.6134 290.673 71.7001C290.673 71.9917 290.567 72.2038 290.329 72.3363C282.947 76.0737 232.988 113.024 211.079 113.024C205.125 113.024 201.235 110.4 200.786 103.614C200.786 103.322 200.733 102.978 200.733 102.686C200.733 94.9994 207.242 84.7944 215.842 75.5171C224.653 65.8952 235.687 57.1216 243.943 52.8275C245.769 51.8998 247.436 51.2106 248.971 50.707C246.351 50.0178 243.017 48.9841 240.001 47.4997C235.185 45.0346 231.083 41.4297 231.083 35.9163C231.083 33.9018 231.586 31.6223 232.856 29.1042C238.757 17.4148 249.156 8.29654 257.915 3.76393C261.116 2.09402 264.159 1.00725 266.673 0.60965C267.255 0.503624 267.811 0.503624 268.287 0.503624C273.659 0.503624 275.379 5.19528 275.379 11.2653C275.379 21.4703 270.51 35.4392 269.266 37.6923C268.473 38.8851 266.356 40.2104 264.583 40.2104C262.969 40.2104 261.672 39.2297 261.672 36.3139V35.7838C261.566 35.7308 265.932 33.1862 268.049 28.7861ZM253.099 50.8395C253.046 50.8395 252.993 50.8395 252.94 50.8925C253.046 51.1311 253.099 51.2371 253.178 51.2371V51.0516C253.178 50.919 253.178 50.8395 253.099 50.8395Z" fill="white" stroke="white" stroke-width="0.4" stroke-miterlimit="10"/>
<path d="M304.803 58.765C305.147 58.765 305.438 58.765 305.73 58.818C307.952 59.2156 308.825 60.2493 308.825 61.6807C308.825 66.1603 299.617 74.2448 297.606 75.8352C298.532 75.8352 298.744 75.8882 299.723 76.1267C303.11 76.7629 306.232 78.4858 307.053 82.5413C313.112 78.0617 320.204 73.211 328.327 67.9892C328.486 67.8832 328.671 67.8037 328.83 67.8037C329.412 67.8037 329.809 68.4398 329.809 68.9965C329.809 69.288 329.703 69.5796 329.465 69.7387C320.759 75.252 313.509 80.5798 307.211 85.2715C306.576 96.8018 283.238 120.472 274.267 121.029C274.109 121.029 273.871 121.082 273.58 121.082C272.997 121.082 272.389 120.976 272.098 120.79C271.595 120.393 271.251 119.65 271.251 118.776C271.251 118.272 271.357 117.689 271.595 117.053C275.485 105.708 296.495 90.4668 305.703 83.522C305.412 79.7846 302.051 78.8304 299.352 78.3003C298.32 78.1412 297.289 78.0087 296.309 78.0087C295.621 78.0087 294.881 78.0617 294.298 78.1147C294.06 78.1147 293.849 78.0617 293.61 77.8762C293.214 78.1147 292.817 78.2207 292.526 78.3268C292.367 78.3798 292.182 78.3798 292.076 78.3798C291.15 78.3798 290.647 77.8762 290.594 77.5846C290.647 77.4255 291.176 76.8954 292.023 76.3918C291.97 76.2858 291.917 76.2327 291.917 76.1532C291.917 76.0737 291.917 76.0472 291.97 76.0472C294.193 75.5171 300.04 70.4278 303.48 66.0277C305.015 64.0663 305.65 62.8735 305.65 62.2373C305.65 61.8397 305.359 61.6542 304.962 61.6542C304.036 61.6542 302.343 62.3963 300.57 63.3241C296.68 65.3916 293.531 67.4591 291.467 70.1893C290.382 71.5676 290.541 73.3435 289.747 73.7942C289.244 74.2978 288.371 74.4833 287.524 74.4833C286.096 74.4833 284.667 73.9002 284.667 73.052C284.667 72.9459 284.72 72.7604 284.772 72.6544C284.772 72.6809 297.606 58.765 304.803 58.765ZM274.585 117.742C274.426 118.246 274.241 119.279 274.241 119.465C283.291 118.034 303.375 96.9343 305.412 86.6763C298.109 92.2162 277.734 108.571 274.585 117.742Z" fill="white" stroke="white" stroke-width="0.4" stroke-miterlimit="10"/>
<path d="M336.874 65.9747C336.874 70.7989 329.147 73.8737 327.56 74.5098C327.56 74.8544 327.507 75.252 327.507 75.6496C327.507 77.0279 327.745 78.6448 328.433 79.6521C329.174 80.7919 330.444 81.322 332.032 81.322C339.917 81.322 355.714 69.3941 355.767 69.341C356.005 69.182 356.217 69.1025 356.455 69.1025C357.196 69.1025 357.831 69.7917 357.831 70.4808C357.831 70.7724 357.672 71.064 357.381 71.276C357.275 71.329 341.875 82.4618 332.482 82.4618C330.021 82.4618 327.957 81.7196 326.713 79.7581C325.628 78.1412 325.231 76.4448 325.231 74.7749C325.231 71.5676 326.845 68.5193 328.724 66.2928C329.756 65.1 330.894 64.1723 331.926 63.5891C332.72 63.1385 333.461 62.9 334.202 62.9C334.598 62.9 334.995 62.953 335.339 63.1385C336.133 63.4831 336.715 64.2253 336.821 65.3121C336.821 65.5771 336.874 65.7627 336.874 65.9747ZM333.408 65.9747C333.408 65.8687 333.355 65.7892 333.249 65.7892C332.111 65.9747 331.026 68.0952 328.38 71.5146C332.032 68.3868 333.408 66.5049 333.408 65.9747Z" fill="white" stroke="white" stroke-width="0.4" stroke-miterlimit="10"/>
<path d="M369.95 65.9217C368.415 67.6977 366.854 69.6591 365.425 71.5411C361.694 76.2858 358.44 80.5268 355.582 80.5268C355.291 80.5268 355 80.5268 354.735 80.4208C353.756 80.1292 353.068 79.5726 352.671 78.7509C352.327 78.0617 352.168 77.2135 352.168 76.3388C352.168 70.0302 360.054 60.0108 365.452 59.2686C366.087 59.1626 366.643 59.1095 367.119 59.1095C369.342 59.1095 370.321 60.3023 371.194 61.2831C373.893 58.7119 376.698 56.936 379.503 56.936C379.899 56.936 380.243 56.989 380.64 57.042C383.048 57.4926 384.027 59.8517 384.027 63.3506C384.027 65.1265 383.789 67.141 383.392 69.3146C382.466 74.4833 372.57 96.9874 370.744 103.084C370.85 104.012 370.929 105.098 370.929 106.344C370.929 114.137 368.971 127.496 364.579 127.496C364.235 127.496 363.838 127.443 363.494 127.258C362.912 126.913 362.647 126.171 362.647 125.031C362.647 121.585 364.949 114.932 367.225 107.431C368.759 104.118 380.667 72.5749 380.667 62.7409C380.667 60.912 380.27 59.8782 379.291 59.8782H379C378.656 59.8252 378.312 59.7722 377.968 59.7722C375.957 59.7722 374.528 61.1505 372.199 63.5626C372.305 64.1458 372.358 64.7554 372.358 65.2856C372.358 66.5579 372.12 67.5121 372.12 67.5121C371.882 67.8567 371.379 68.0422 370.929 68.0422C370.347 68.0422 369.844 67.7507 369.844 67.0615V67.0085C369.765 66.9555 369.897 66.5579 369.95 65.9217ZM368.521 62.6084C368.177 62.6084 367.727 62.7144 366.801 62.953C362.118 63.9337 355.714 74.9339 355.714 77.6906C355.714 77.9822 355.767 78.1412 355.873 78.2738C355.979 78.3268 356.111 78.3268 356.217 78.3268C357.831 78.3268 360.345 75.2785 363.652 71.0375C365.478 68.6784 367.304 65.3651 369.315 63.1915C368.971 62.7674 368.865 62.6084 368.521 62.6084ZM364.446 124.952C364.446 125.137 364.446 125.19 364.499 125.243H364.605C365.875 125.243 367.86 115.277 368.68 109.021C366.695 115.542 364.446 123.335 364.446 124.952Z" fill="white" stroke="white" stroke-width="0.4" stroke-miterlimit="10"/>
<path d="M389.055 79.7316C389.055 80.9244 389.452 81.6931 390.325 81.6931C390.431 81.6931 390.616 81.6401 390.722 81.6401C394.162 80.7124 403.132 67.9892 403.317 64.7819C403.503 63.6422 404.058 63.165 404.64 63.165C405.672 63.165 406.863 64.4904 406.863 65.9747C406.863 66.0277 405.831 70.4013 405.831 74.2183C405.831 76.6304 406.228 78.7509 407.551 79.44C407.789 79.5461 408.133 79.5991 408.477 79.5991C413.055 79.5991 425.703 69.3411 425.756 69.288C426.047 69.1025 426.338 68.9965 426.55 68.9965C427.238 68.9965 427.741 69.6326 427.741 70.3748C427.741 70.5338 427.688 70.7194 427.635 70.958C427.635 71.011 414.987 81.11 408.636 81.11C407.948 81.11 407.313 81.0039 406.81 80.7124C404.349 79.387 403.714 75.8882 403.714 72.5218V72.0712C400.671 77.346 394.956 84.9004 390.431 84.9004C389.849 84.9004 389.293 84.7944 388.764 84.5028C386.806 83.469 386.065 81.3485 386.065 78.7774C386.065 71.7797 391.384 61.5216 391.384 61.4686C391.728 60.4349 392.574 59.9843 393.448 59.9843C394.823 59.9843 396.252 61.071 396.252 62.5554C396.252 62.7409 396.252 62.9 396.199 63.1385C391.78 69.7652 389.055 76.4713 389.055 79.7316Z" fill="white" stroke="white" stroke-width="0.4" stroke-miterlimit="10"/>
<path d="M427.82 77.2135C427.82 78.4063 428.164 79.387 428.958 79.9172C429.249 80.1557 429.699 80.2087 430.281 80.2087C436.976 80.2087 462.325 69.2615 462.325 69.2615C462.775 68.917 463.172 68.8109 463.595 68.8109C464.627 68.8109 465.368 69.6061 465.368 70.1893C465.368 70.2953 465.368 70.4278 465.262 70.5339C465.21 70.5339 438.828 82.0642 429.276 82.0642C427.847 82.0642 426.762 81.8256 426.233 81.216C424.619 80.1822 424.063 78.2473 424.063 76.0472C424.063 72.0447 425.994 67.1675 427.026 65.3916C427.476 64.4108 428.297 64.0132 429.143 64.0132C430.334 64.0132 431.551 64.8615 431.551 66.0808C431.551 66.2398 431.551 66.4253 431.498 66.5844C431.472 66.5579 427.82 73.211 427.82 77.2135ZM434.753 55.2131C434.753 55.6107 434.7 56.0083 434.515 56.4059C434.118 57.5987 433.139 58.4204 432.239 58.4204C432.054 58.4204 431.895 58.4204 431.71 58.3674C430.969 58.0758 430.519 57.2806 430.519 56.2998C430.519 55.9022 430.572 55.5047 430.757 55.1071C431.207 53.9143 432.186 53.0926 433.112 53.0926C433.271 53.0926 433.404 53.0926 433.562 53.1456C434.277 53.4371 434.753 54.2323 434.753 55.2131Z" fill="white" stroke="white" stroke-width="0.4" stroke-miterlimit="10"/>
<path d="M472.83 65.9747C472.83 70.7989 465.104 73.8737 463.516 74.5098C463.516 74.8544 463.463 75.252 463.463 75.6496C463.463 77.0279 463.701 78.6448 464.389 79.6521C465.13 80.7919 466.4 81.322 467.988 81.322C475.873 81.322 491.67 69.3941 491.723 69.341C491.962 69.182 492.173 69.1025 492.411 69.1025C493.152 69.1025 493.787 69.7917 493.787 70.4808C493.787 70.7724 493.629 71.064 493.338 71.276C493.232 71.329 477.831 82.4618 468.438 82.4618C465.977 82.4618 463.913 81.7196 462.669 79.7581C461.584 78.1412 461.187 76.4448 461.187 74.7749C461.187 71.5676 462.802 68.5193 464.68 66.2928C465.712 65.1 466.85 64.1723 467.882 63.5891C468.676 63.1385 469.417 62.9 470.158 62.9C470.555 62.9 470.952 62.953 471.296 63.1385C472.089 63.4831 472.672 64.2253 472.777 65.3121C472.777 65.5771 472.83 65.7627 472.83 65.9747ZM469.337 65.9747C469.337 65.8687 469.285 65.7892 469.179 65.7892C468.041 65.9747 466.956 68.0952 464.31 71.5146C467.961 68.3868 469.337 66.5049 469.337 65.9747Z" fill="white" stroke="white" stroke-width="0.4" stroke-miterlimit="10"/>
<path d="M487.304 99.5055C487.304 101.281 487.543 102.66 487.939 103.508C488.522 104.701 489.368 105.284 490.4 105.284C498.815 105.284 520.381 70.6134 520.433 70.5074C521.016 69.6591 521.624 69.3146 522.153 69.3146C522.789 69.3146 523.238 69.7652 523.238 70.5869V70.6399C523.185 70.7459 500.588 106.106 490.215 106.106C488.68 106.106 487.41 105.31 486.484 103.481C485.902 102.289 485.69 100.38 485.69 98.1006C485.69 83.0979 496.804 48.4804 504.398 37.9838C506.224 34.8296 508.05 32.2054 509.611 30.35C511.384 28.3355 512.998 27.1957 514.295 27.1957H514.347C515.327 27.2487 516.067 27.8849 516.517 29.0777C516.755 29.7138 516.861 30.456 516.861 31.3042C516.861 41.6152 500.561 65.8157 493.629 70.4543C489.421 84.0257 487.304 93.9391 487.304 99.5055ZM514.718 30.509C514.718 30.2174 514.665 30.0054 514.612 29.8198C514.453 29.4753 514.321 29.3162 514.215 29.3162H514.162C513.58 29.3162 512.548 30.2439 511.252 31.7283C509.77 33.4512 508.05 35.9694 506.277 39.0176C502.731 45.0876 498.153 57.7577 495.454 65.3121C498.974 62.0253 514.718 36.579 514.718 30.509Z" fill="white" stroke="white" stroke-width="0.4" stroke-miterlimit="10"/>
<path d="M609.263 14.7906H609.66C616.301 14.7906 631.014 16.116 635.459 21.0462C636.253 21.9739 636.597 23.0607 636.597 24.3065C636.597 38.567 588.491 74.0062 581.849 79.0955C569.836 88.3727 563.882 94.5753 554.171 100.062C560.019 99.2669 571.053 98.2862 582.961 98.2862C604.579 98.2862 628.95 101.493 629.77 114.561C629.664 115.25 628.5 115.754 627.653 115.754C627.071 115.754 626.568 115.515 626.568 114.959C626.568 114.853 626.568 114.8 626.621 114.667C626.568 103.906 609.104 100.751 589.708 100.751C571.106 100.751 550.811 103.614 542.449 105.284L541.814 105.337C537.289 107.51 533.585 108.783 530.991 108.783H530.833C528.875 108.73 527.975 108.2 527.975 107.298V107.245C527.975 106.106 533.241 104.489 541.364 103.11C551.419 98.1802 566.714 89.539 581.188 78.3533C586.612 74.2183 633.369 35.7838 633.369 24.9956C633.369 24.3065 633.184 23.7233 632.787 23.2727C629.135 19.1377 616.09 18.6341 610.004 18.6341H608.972C587.168 18.7931 559.305 24.3065 551.578 33.7693C552.557 34.2729 552.901 34.8561 552.901 35.4392C552.901 36.8706 550.387 38.2489 548.561 38.2489C547.477 38.2489 546.683 37.7983 546.683 36.632C546.683 36.2344 546.789 35.7043 547.027 35.1476C552.266 23.6173 585.236 14.9762 609.263 14.7906Z" fill="white" stroke="white" stroke-width="0.4" stroke-miterlimit="10"/>
<path d="M624.346 72.2303C619.821 76.5243 614.687 81.3485 612.226 81.3485C612.174 81.3485 612.041 81.2955 611.935 81.2955C611.3 81.1895 610.851 80.8449 610.454 80.3678C610.004 79.7846 609.819 79.0955 609.819 78.3003C609.819 78.0087 609.819 77.7171 609.871 77.452C609.977 76.5243 610.321 75.3845 610.903 74.2448C612.57 70.5869 616.116 66.2663 620.509 64.9675C621.647 64.6229 622.679 64.5169 623.605 64.5169C625.378 64.5169 626.701 65.1 627.547 65.9482C629.267 64.5169 631.278 63.0855 632.363 63.0855C632.548 63.0855 632.707 63.1385 632.813 63.1915C633.554 63.2976 633.951 64.0397 633.951 65.3121C633.951 66.6904 633.501 68.6254 632.522 71.0905C631.887 72.8134 631.596 74.2448 631.596 75.3845C631.596 78.3533 633.475 79.4665 636.279 79.4665C643.556 79.4665 657.051 71.7796 659.062 69.2615C659.406 68.5724 659.803 68.3338 660.147 68.3338C660.65 68.3338 660.994 68.7844 660.994 69.4206C660.994 69.7652 660.888 70.1097 660.597 70.4543C659.909 71.4351 644.588 80.4208 635.644 80.4208C631.993 80.4208 629.4 78.8834 629.4 74.5628C629.4 73.4231 629.558 72.0977 629.982 70.4808C630.326 68.3073 631.067 66.2928 631.067 65.8422V65.7892C631.067 65.7892 630.22 66.5844 628.897 67.8567C629.135 68.5459 629.135 69.235 629.135 69.5796V69.8182C628.632 70.5604 627.944 70.9049 627.309 70.9049C627.071 70.9049 626.859 70.8519 626.621 70.7194L626.462 70.2158C625.669 71.011 625.325 71.3025 624.346 72.2303ZM623.367 68.4398C620.615 68.4398 615.825 74.6954 615.825 75.9942C615.825 76.1797 615.931 76.2858 616.169 76.2858C617.254 76.2858 620.694 73.5291 624.293 68.7314C624.002 68.4928 623.711 68.4398 623.367 68.4398Z" fill="white" stroke="white" stroke-width="0.4" stroke-miterlimit="10"/>
<path d="M661.735 82.3823C661.735 82.6208 661.788 82.7269 661.841 82.7269C661.894 82.7269 661.947 82.6738 661.999 82.6208C663.428 81.5341 674.648 59.9313 675.733 57.7577C675.786 57.7047 676.368 56.2203 676.368 56.2203C676.606 56.0348 677.056 55.9818 677.559 55.9818C678.696 55.9818 680.178 56.3794 680.178 57.2541V57.3601L679.331 59.03C679.04 59.8252 677.955 61.9988 677.955 64.1988C677.955 66.9025 679.623 69.5796 686.37 69.5796C687.349 69.5796 688.381 69.5266 689.519 69.4206C690.313 69.6591 690.657 70.1628 690.657 70.6134C690.657 71.117 690.26 71.6471 689.519 71.7001C679.437 71.7001 676.368 67.9627 675.839 64.1988C670.917 73.1845 662.449 87.8691 659.248 87.8691C659.062 87.8691 658.904 87.8161 658.798 87.7631C657.607 87.5245 657.184 85.6956 657.184 83.0714C657.184 77.0545 659.592 66.7434 661.179 61.9723C661.576 60.8855 662.317 60.4879 663.19 60.4879C664.566 60.4879 666.101 61.6807 666.683 63.006C666.71 63.006 661.735 79.7316 661.735 82.3823Z" fill="white" stroke="white" stroke-width="0.4" stroke-miterlimit="10"/>
<path d="M698.013 72.2303C693.488 76.5243 688.354 81.3485 685.894 81.3485C685.841 81.3485 685.708 81.2955 685.603 81.2955C684.967 81.1895 684.518 80.8449 684.121 80.3678C683.671 79.7846 683.486 79.0955 683.486 78.3003C683.486 78.0087 683.486 77.7171 683.539 77.452C683.644 76.5243 683.988 75.3845 684.571 74.2448C686.238 70.5869 689.783 66.2663 694.176 64.9675C695.314 64.6229 696.346 64.5169 697.272 64.5169C699.045 64.5169 700.368 65.1 701.214 65.9482C702.934 64.5169 704.945 63.0855 706.03 63.0855C706.216 63.0855 706.374 63.1385 706.48 63.1915C707.221 63.2976 707.618 64.0397 707.618 65.3121C707.618 66.6904 707.168 68.6254 706.189 71.0905C705.554 72.8134 705.263 74.2448 705.263 75.3845C705.263 78.3533 707.142 79.4665 709.947 79.4665C717.223 79.4665 730.718 71.7796 732.729 69.2615C733.073 68.5724 733.47 68.3338 733.814 68.3338C734.317 68.3338 734.661 68.7844 734.661 69.4206C734.661 69.7652 734.555 70.1097 734.264 70.4543C733.576 71.4351 718.255 80.4208 709.312 80.4208C705.66 80.4208 703.067 78.8834 703.067 74.5628C703.067 73.4231 703.226 72.0977 703.649 70.4808C703.993 68.3073 704.734 66.2928 704.734 65.8422V65.7892C704.734 65.7892 703.887 66.5844 702.564 67.8567C702.802 68.5459 702.802 69.235 702.802 69.5796V69.8182C702.299 70.5604 701.611 70.9049 700.976 70.9049C700.738 70.9049 700.526 70.8519 700.288 70.7194L700.13 70.2158C699.336 71.011 698.992 71.3025 698.013 72.2303ZM697.034 68.4398C694.282 68.4398 689.492 74.6954 689.492 75.9942C689.492 76.1797 689.598 76.2858 689.836 76.2858C690.921 76.2858 694.361 73.5291 697.96 68.7314C697.669 68.4928 697.378 68.4398 697.034 68.4398Z" fill="white" stroke="white" stroke-width="0.4" stroke-miterlimit="10"/>
<path d="M729.448 99.5055C729.448 101.281 729.686 102.66 730.083 103.508C730.666 104.701 731.512 105.284 732.544 105.284C740.959 105.284 762.524 70.6134 762.577 70.5074C763.16 69.6591 763.768 69.3146 764.297 69.3146C764.932 69.3146 765.382 69.7652 765.382 70.5869V70.6399C765.329 70.7459 742.732 106.106 732.359 106.106C730.824 106.106 729.554 105.31 728.628 103.481C728.046 102.289 727.834 100.38 727.834 98.1006C727.834 83.0979 738.948 48.4804 746.542 37.9838C748.368 34.8296 750.194 32.2054 751.755 30.35C753.528 28.3355 755.142 27.1957 756.438 27.1957H756.491C757.47 27.2487 758.211 27.8849 758.661 29.0777C758.899 29.7138 759.005 30.456 759.005 31.3042C759.005 41.6152 742.705 65.8157 735.772 70.4543C731.565 84.0257 729.448 93.9391 729.448 99.5055ZM756.862 30.509C756.862 30.2174 756.809 30.0054 756.756 29.8198C756.597 29.4753 756.465 29.3162 756.359 29.3162H756.306C755.724 29.3162 754.692 30.2439 753.395 31.7283C751.914 33.4512 750.194 35.9694 748.421 39.0176C744.875 45.0876 740.297 57.7577 737.598 65.3121C741.144 62.0253 756.862 36.579 756.862 30.509Z" fill="white" stroke="white" stroke-width="0.4" stroke-miterlimit="10"/>
<path d="M775.041 70.0567C774.194 70.9049 773.903 71.1965 772.924 72.1242C768.346 76.3653 763.265 81.1895 760.858 81.1895C760.752 81.1895 760.619 81.1365 760.513 81.1365C759.878 81.0304 759.376 80.7389 759.032 80.2883C758.582 79.7051 758.397 78.9099 758.397 77.9822C758.397 77.8231 758.397 77.5846 758.397 77.346C758.555 76.3653 758.899 75.2785 759.429 74.0857C761.149 70.4808 764.694 66.1868 769.034 64.8615C770.304 64.5169 771.336 64.3578 772.236 64.3578C774.009 64.3578 775.279 64.941 776.125 65.7892C777.898 64.4108 779.856 62.9795 780.994 62.9795C781.153 62.9795 781.285 63.0325 781.391 63.0855C782.132 63.1915 782.529 63.9337 782.529 65.206C782.529 66.5844 782.079 68.5194 781.1 70.9315C780.703 72.1242 780.518 73.3435 780.518 74.3773C780.518 75.305 780.624 76.1532 780.703 76.7364C781.444 78.0087 782.926 79.1485 785.784 79.1485C787.742 79.1485 790.256 78.6449 793.616 77.3725C810.842 71.011 831.667 62.2903 849.925 61.5481C851.063 61.4951 852.095 61.4951 853.127 61.4951C858.631 61.4951 863.076 62.1843 866.516 63.2711C873.105 65.2326 876.412 68.3073 877.153 69.8712C877.391 70.1628 877.444 70.3748 877.444 70.6664C877.444 71.4616 876.65 72.2038 875.83 72.2038C875.539 72.2038 875.248 72.0977 875.036 71.8592C874.454 70.5869 871.544 66.982 865.59 65.206C861.991 64.1193 857.281 62.794 851.407 62.794C850.825 62.794 850.269 62.847 849.634 62.847C830.079 63.6422 811.715 72.3098 793.616 79.0159C789.885 80.3943 787.107 80.9509 784.91 80.9509C779.01 80.9509 778.163 76.8689 778.163 74.5363V73.4231C778.163 72.4423 778.269 71.4086 778.56 70.3218C778.904 68.1483 779.698 66.1338 779.698 65.7362L779.645 65.6832C779.592 65.6832 778.719 66.5314 777.422 67.7507C777.713 68.4398 777.766 69.182 777.766 69.4736L777.713 69.6591C777.263 70.4543 776.522 70.7459 775.887 70.7459C775.649 70.7459 775.437 70.6929 775.199 70.6399C775.226 70.6134 775.173 70.6134 775.041 70.0567ZM771.945 68.2808C769.246 68.2808 764.403 74.5363 764.403 75.8352V75.8882C764.456 76.0472 764.562 76.1797 764.747 76.1797C765.779 76.1797 769.272 73.3701 772.818 68.5459C772.58 68.3868 772.289 68.2808 771.945 68.2808Z" fill="white" stroke="white" stroke-width="0.4" stroke-miterlimit="10"/>
</svg>
