<svg width="24" height="24" viewBox="0 0 24 24" fill="none" xmlns="http://www.w3.org/2000/svg">
<path d="M12.7522 23.9998H11.2515C11.1994 23.987 11.1473 23.9669 11.0943 23.9624C9.01998 23.8062 7.10546 23.167 5.38367 22.0028C2.55665 20.0916 0.813853 17.4535 0.186337 14.0913C0.104129 13.6485 0.0611989 13.1974 0 12.7508V11.2506C0.0876879 10.7282 0.124225 10.1995 0.2247 9.67813C1.21576 4.53078 5.60837 0.5358 10.8222 0.0573156C13.4363 -0.181927 15.9071 0.313907 18.1414 1.70096C21.8653 4.01212 23.842 7.3889 23.9927 11.7756C24.0786 14.2557 23.3971 16.5522 22.0097 18.6123C20.1015 21.4448 17.4572 23.1853 14.0931 23.8135C13.6501 23.8966 13.1998 23.9386 12.7522 23.9998ZM8.75692 11.992C8.75692 13.6165 8.75874 15.2401 8.756 16.8645C8.756 17.354 8.9533 17.7284 9.38626 17.9576C9.81283 18.1831 10.233 18.1292 10.6239 17.8608C12.9851 16.239 15.3472 14.6191 17.7029 12.9892C18.4483 12.4732 18.4455 11.5254 17.6983 11.0086C15.3426 9.37954 12.9796 7.76055 10.6203 6.13699C10.4294 6.0055 10.222 5.9224 9.99003 5.91053C9.30131 5.874 8.7624 6.39449 8.75966 7.11952C8.75418 8.744 8.75783 10.3676 8.75783 11.992H8.75692Z" fill="#7F7F7F"/>
</svg>
