<svg width="33" height="15" viewBox="0 0 33 15" fill="none" xmlns="http://www.w3.org/2000/svg">
<g opacity="0.98">
<path d="M17.2547 7.43675C17.2547 5.33527 17.263 3.23101 17.2463 1.12953C17.2463 0.755256 17.3852 0.569504 17.7268 0.447519C20.9092 -0.69194 24.2472 0.389298 26.1522 3.18111C26.8076 4.14314 27.1991 5.20219 27.3213 6.35551C27.3407 6.54958 27.3991 6.5884 27.5768 6.52186C29.8845 5.66519 32.3699 7.10961 32.8975 9.47447C33.4446 11.9253 31.7006 14.3151 29.2347 14.4537C27.7017 14.5397 26.1661 14.4731 24.6332 14.4731C22.4032 14.4703 20.1733 14.4703 17.9461 14.4676C17.3574 14.4676 17.2463 14.3539 17.2463 13.7467C17.2463 11.6453 17.2463 9.54101 17.2463 7.43953H17.2547V7.43675Z" fill="#666666"/>
<path d="M15.8689 6.18359C15.905 4.60609 15.9411 3.03136 15.9717 1.45386C15.9772 1.19326 16.0689 1.01582 16.3438 0.982554C16.6298 0.946513 16.7881 1.09345 16.8381 1.36515C16.8603 1.4899 16.8714 1.62021 16.8742 1.74774C16.8881 2.44361 16.8936 3.14226 16.9103 3.8409C16.9603 6.05883 17.0353 8.27952 17.0575 10.4974C17.0658 11.3624 16.9769 12.2302 16.9047 13.0952C16.8742 13.4362 16.9214 13.7827 16.827 14.1182C16.7687 14.3234 16.6381 14.4232 16.441 14.4509C16.2438 14.4759 16.1244 14.3594 16.0217 14.2097C15.9744 14.1404 15.98 14.0683 15.9744 13.9935C15.8384 12.0361 15.7273 10.0788 15.8384 8.11318C15.8745 7.46998 15.8439 6.82679 15.8439 6.18081H15.8717L15.8689 6.18359Z" fill="#666666"/>
<path d="M15.455 6.98487C15.5883 8.46256 15.6272 9.94026 15.58 11.4207C15.555 12.2663 15.5023 13.1119 15.4495 13.9547C15.4328 14.2098 15.3523 14.4482 15.0246 14.4565C14.758 14.462 14.6386 14.3123 14.6108 13.963C14.3831 11.149 14.4775 8.33226 14.5525 5.5155C14.5803 4.45366 14.5942 3.39461 14.6108 2.33277C14.6164 1.93078 14.733 1.76998 15.0191 1.76443C15.2912 1.76166 15.455 1.97236 15.455 2.35495C15.455 3.89918 15.455 5.44064 15.455 6.98487Z" fill="#666666"/>
<path d="M13.1058 7.50326C13.2391 6.15309 13.1558 4.8972 13.2475 3.64407C13.2725 3.30306 13.4197 3.09236 13.6446 3.13117C13.939 3.18108 14.0278 3.40564 14.0334 3.67456C14.0778 5.57089 14.0834 7.46999 14.1778 9.36631C14.2555 10.9161 14.0584 12.4465 14.0306 13.9879C14.025 14.2236 13.9473 14.4426 13.6501 14.4509C13.3613 14.4592 13.2614 14.279 13.2475 14.0212C13.1642 12.3744 13.0031 10.7303 13.1003 9.07521C13.1336 8.52073 13.1058 7.9607 13.1058 7.50048V7.50326Z" fill="#666666"/>
<path d="M12.7448 10.2452C12.817 11.5233 12.6642 12.7903 12.6115 14.0656C12.6031 14.2707 12.5059 14.4426 12.2643 14.4537C12.0033 14.462 11.9089 14.2984 11.8922 14.0656C11.8533 13.4667 11.82 12.8679 11.7784 12.269C11.6228 10.0068 11.7867 7.74725 11.8367 5.48497C11.8533 4.76692 11.8367 4.04886 11.8894 3.33081C11.9061 3.10347 11.9589 2.92049 12.2282 2.91495C12.5032 2.91218 12.6059 3.08961 12.6142 3.33081C12.6614 4.76692 12.7114 6.20302 12.742 7.63913C12.7614 8.50689 12.7448 9.37465 12.7448 10.2452Z" fill="#666666"/>
<path d="M10.4177 7.25374C10.4594 5.8814 10.5038 4.50906 10.5454 3.13949C10.551 2.92047 10.6177 2.74304 10.8592 2.74027C11.1147 2.73749 11.1897 2.91493 11.198 3.14781C11.2786 5.61248 11.3813 8.07715 11.4396 10.5418C11.4563 11.2682 11.3536 11.9946 11.3036 12.7209C11.273 13.1701 11.2286 13.6164 11.2008 14.0655C11.1869 14.2901 11.112 14.4426 10.8676 14.4481C10.6093 14.4509 10.5593 14.279 10.5427 14.0628C10.3538 11.7949 10.2761 9.52434 10.4177 7.25097V7.25374Z" fill="#666666"/>
<path d="M9.95949 7.43677C9.99282 8.45425 10.0484 9.47172 10.0539 10.4892C10.0567 11.1185 9.99004 11.7506 9.95116 12.38C9.91784 12.8929 9.87618 13.4058 9.84008 13.9159C9.83453 13.9907 9.84286 14.0684 9.82342 14.1405C9.77899 14.3013 9.71234 14.4537 9.50962 14.4454C9.30134 14.4371 9.21248 14.2985 9.19859 14.1044C9.15416 13.4418 9.10973 12.7792 9.06808 12.1166C8.88479 9.21111 9.18193 6.31118 9.19582 3.40847C9.19582 3.18668 9.28468 3.00924 9.51517 3.00647C9.75677 3.00647 9.82064 3.20886 9.82897 3.41401C9.85674 4.18474 9.88729 4.95547 9.90118 5.72897C9.91228 6.29732 9.90118 6.86289 9.90118 7.43123H9.95672L9.95949 7.43677Z" fill="#666666"/>
<path d="M8.67376 9.59092C8.75152 10.7415 8.61267 11.9669 8.50714 13.195C8.47937 13.5056 8.45716 13.8133 8.43772 14.1238C8.42661 14.3012 8.37662 14.4482 8.16835 14.4509C7.95452 14.4565 7.91564 14.2985 7.88787 14.1293C7.81845 13.7052 7.83789 13.2754 7.79068 12.8485C7.5463 10.4947 7.73791 8.13818 7.83233 5.78441C7.85733 5.17448 7.82122 4.56178 7.89343 3.95185C7.91564 3.7661 7.94341 3.6053 8.17946 3.61639C8.42106 3.62748 8.42661 3.80214 8.43494 3.98234C8.5127 5.82322 8.59323 7.6641 8.67654 9.59092H8.67376Z" fill="#666666"/>
<path d="M7.33788 10.1646C7.35454 11.5008 7.15739 12.8398 7.06575 14.1843C7.05465 14.3423 6.97967 14.456 6.80751 14.4477C6.61313 14.4394 6.57148 14.2841 6.55759 14.1289C6.51039 13.5301 6.46318 12.934 6.42708 12.3352C6.37154 11.4176 6.29657 10.5 6.35488 9.57684C6.44374 8.1325 6.49095 6.68539 6.55759 5.24105C6.56592 5.07194 6.6159 4.90284 6.82139 4.90007C7.01022 4.89729 7.0602 5.03591 7.06853 5.20501C7.15739 6.85172 7.24625 8.50121 7.33788 10.1646Z" fill="#666666"/>
<path d="M4.99414 10.6691C5.08578 9.53527 5.17464 8.41528 5.26349 7.2953C5.2746 7.16777 5.33014 7.05966 5.47176 7.05411C5.63559 7.0458 5.6939 7.16777 5.70779 7.30361C5.77443 7.98559 5.8383 8.66756 5.90217 9.34676C5.92716 9.62398 5.94382 9.90121 5.97159 10.1784C6.07433 11.1459 5.84941 12.094 5.81053 13.0532C5.79665 13.3942 5.74111 13.7352 5.71334 14.0762C5.69946 14.2453 5.68002 14.4255 5.47176 14.42C5.28849 14.4144 5.26905 14.2453 5.25794 14.0845C5.17464 12.9424 5.083 11.8002 4.99414 10.6719V10.6691Z" fill="#666666"/>
<path d="M3.68896 10.6359C3.77227 9.60736 3.85835 8.55945 3.94443 7.51432C3.95832 7.35352 3.95832 7.19274 3.97776 7.03472C3.99164 6.92106 4.05551 6.81571 4.17769 6.82125C4.29432 6.8268 4.34985 6.92105 4.36096 7.04303C4.42205 7.69451 4.48592 8.34322 4.54701 8.99192C4.58588 9.39667 4.61088 9.80142 4.66364 10.2062C4.72195 10.658 4.64697 11.1044 4.61088 11.5507C4.53868 12.4046 4.44704 13.2556 4.36651 14.1067C4.35541 14.237 4.31375 14.3562 4.17491 14.3562C4.03885 14.3562 3.98331 14.237 3.9722 14.1067C3.87779 12.9562 3.78338 11.803 3.68896 10.6331V10.6359Z" fill="#666666"/>
<path d="M2.39209 10.6497C2.47817 9.6739 2.56425 8.6953 2.64756 7.71392C2.66144 7.54204 2.67255 7.37294 2.68088 7.20106C2.68643 7.07354 2.72809 6.94601 2.8586 6.93492C2.99466 6.92106 3.0141 7.05967 3.02521 7.16502C3.08352 7.7167 3.13906 8.27114 3.1946 8.82282C3.25291 9.38559 3.34455 9.94835 3.35565 10.5139C3.36676 11.0018 3.28901 11.4925 3.24458 11.9804C3.18904 12.5764 3.12518 13.1725 3.06408 13.7657C3.06408 13.7879 3.06408 13.8101 3.05853 13.8295C2.99744 13.9598 3.09463 14.2093 2.8586 14.201C2.63645 14.1927 2.69477 13.9709 2.68088 13.8184C2.59202 12.8065 2.50039 11.7947 2.41153 10.7828C2.40875 10.7412 2.40042 10.6969 2.39209 10.6497Z" fill="#666666"/>
<path d="M2.05608 10.5805C2.05608 11.0573 1.94223 11.5813 1.89224 12.1108C1.85059 12.5571 1.77006 12.9979 1.71452 13.4414C1.70064 13.5495 1.71452 13.6771 1.56735 13.6798C1.41463 13.6826 1.42018 13.5357 1.40907 13.4414C1.3341 12.7927 1.29245 12.1412 1.19248 11.4981C1.02309 10.3975 1.28134 9.32742 1.37575 8.24625C1.39241 8.06605 1.40352 7.88308 1.43129 7.70566C1.44239 7.62804 1.45628 7.51715 1.57291 7.53378C1.66454 7.54764 1.70342 7.62249 1.71452 7.72229C1.74785 8.03001 1.79783 8.33773 1.83393 8.64545C1.9089 9.27198 1.97832 9.89573 2.05885 10.5805H2.05608Z" fill="#666666"/>
<path d="M0.761956 10.6249C0.667544 11.2376 0.573131 11.8364 0.481495 12.4352C0.467611 12.5156 0.428735 12.5766 0.3371 12.5793C0.23158 12.5793 0.226026 12.4906 0.214919 12.4213C0.153828 11.9888 0.103845 11.5564 0.0344244 11.1239C-0.0849796 10.3726 0.139944 9.64629 0.198258 8.90888C0.206588 8.81185 0.209365 8.66492 0.356538 8.67601C0.464834 8.68432 0.473165 8.8063 0.487049 8.90333C0.575908 9.47996 0.67032 10.0566 0.759179 10.6249H0.761956Z" fill="#666666"/>
</g>
</svg>
