<svg width="33" height="15" viewBox="0 0 33 15" fill="none" xmlns="http://www.w3.org/2000/svg">
<g opacity="0.98">
<path d="M17.2547 7.43675C17.2547 5.33527 17.263 3.23101 17.2463 1.12953C17.2463 0.755256 17.3852 0.569504 17.7268 0.447519C20.9092 -0.69194 24.2472 0.389298 26.1522 3.18111C26.8076 4.14314 27.1991 5.20219 27.3213 6.35551C27.3407 6.54958 27.3991 6.5884 27.5768 6.52186C29.8845 5.66519 32.3699 7.10961 32.8975 9.47447C33.4446 11.9253 31.7006 14.3151 29.2347 14.4537C27.7017 14.5397 26.1661 14.4731 24.6332 14.4731C22.4032 14.4703 20.1733 14.4703 17.9461 14.4676C17.3574 14.4676 17.2463 14.3539 17.2463 13.7467C17.2463 11.6453 17.2463 9.54101 17.2463 7.43953H17.2547V7.43675Z" fill="white"/>
<path d="M15.869 6.18362C15.9051 4.60612 15.9412 3.03139 15.9717 1.45389C15.9773 1.19329 16.0689 1.01585 16.3438 0.982585C16.6299 0.946543 16.7882 1.09348 16.8382 1.36518C16.8604 1.48993 16.8715 1.62024 16.8743 1.74777C16.8881 2.44364 16.8937 3.14229 16.9104 3.84093C16.9603 6.05886 17.0353 8.27956 17.0575 10.4975C17.0659 11.3625 16.977 12.2302 16.9048 13.0952C16.8743 13.4362 16.9215 13.7828 16.827 14.1182C16.7687 14.3234 16.6382 14.4232 16.441 14.4509C16.2439 14.4759 16.1245 14.3594 16.0217 14.2097C15.9745 14.1404 15.9801 14.0683 15.9745 13.9935C15.8384 12.0362 15.7274 10.0788 15.8384 8.11321C15.8745 7.47001 15.844 6.82682 15.844 6.18085H15.8718L15.869 6.18362Z" fill="white"/>
<path d="M15.4551 6.98484C15.5884 8.46253 15.6273 9.94022 15.5801 11.4207C15.5551 12.2663 15.5023 13.1119 15.4496 13.9547C15.4329 14.2097 15.3524 14.4482 15.0247 14.4565C14.7581 14.462 14.6387 14.3123 14.6109 13.963C14.3832 11.149 14.4776 8.33223 14.5526 5.51547C14.5804 4.45363 14.5942 3.39458 14.6109 2.33274C14.6165 1.93075 14.7331 1.76995 15.0191 1.7644C15.2913 1.76163 15.4551 1.97233 15.4551 2.35492C15.4551 3.89915 15.4551 5.44061 15.4551 6.98484Z" fill="white"/>
<path d="M13.1057 7.50329C13.239 6.15313 13.1557 4.89723 13.2474 3.6441C13.2723 3.30309 13.4195 3.09239 13.6445 3.1312C13.9388 3.18111 14.0277 3.40567 14.0332 3.67459C14.0777 5.57092 14.0832 7.47002 14.1777 9.36634C14.2554 10.9161 14.0582 12.4465 14.0305 13.9879C14.0249 14.2236 13.9472 14.4426 13.65 14.4509C13.3612 14.4593 13.2612 14.279 13.2474 14.0212C13.164 12.3744 13.003 10.7304 13.1002 9.07524C13.1335 8.52076 13.1057 7.96073 13.1057 7.50051V7.50329Z" fill="white"/>
<path d="M12.7447 10.2452C12.8169 11.5233 12.6642 12.7903 12.6114 14.0656C12.6031 14.2708 12.5059 14.4426 12.2643 14.4537C12.0032 14.462 11.9088 14.2985 11.8922 14.0656C11.8533 13.4668 11.8199 12.8679 11.7783 12.2691C11.6228 10.0068 11.7866 7.74728 11.8366 5.485C11.8533 4.76695 11.8366 4.04889 11.8894 3.33084C11.906 3.1035 11.9588 2.92052 12.2282 2.91498C12.5031 2.91221 12.6058 3.08964 12.6142 3.33084C12.6614 4.76695 12.7114 6.20305 12.7419 7.63916C12.7614 8.50692 12.7447 9.37469 12.7447 10.2452Z" fill="white"/>
<path d="M10.4176 7.25377C10.4592 5.88143 10.5037 4.50909 10.5453 3.13952C10.5509 2.9205 10.6175 2.74307 10.8591 2.7403C11.1146 2.73752 11.1896 2.91496 11.1979 3.14784C11.2785 5.61251 11.3812 8.07718 11.4395 10.5418C11.4562 11.2682 11.3534 11.9946 11.3034 12.721C11.2729 13.1701 11.2285 13.6164 11.2007 14.0656C11.1868 14.2901 11.1118 14.4426 10.8675 14.4482C10.6092 14.4509 10.5592 14.279 10.5425 14.0628C10.3537 11.795 10.276 9.52437 10.4176 7.251V7.25377Z" fill="white"/>
<path d="M9.95937 7.43677C9.9927 8.45425 10.0482 9.47172 10.0538 10.4892C10.0566 11.1185 9.98992 11.7506 9.95104 12.38C9.91772 12.8929 9.87606 13.4058 9.83996 13.9159C9.83441 13.9907 9.84274 14.0684 9.8233 14.1405C9.77887 14.3013 9.71222 14.4537 9.5095 14.4454C9.30122 14.4371 9.21236 14.2985 9.19847 14.1044C9.15404 13.4418 9.10961 12.7792 9.06795 12.1166C8.88467 9.21111 9.18181 6.31118 9.1957 3.40847C9.1957 3.18668 9.28456 3.00924 9.51505 3.00647C9.75665 3.00647 9.82052 3.20886 9.82885 3.41401C9.85662 4.18474 9.88717 4.95547 9.90105 5.72897C9.91216 6.29732 9.90105 6.86289 9.90105 7.43123H9.95659L9.95937 7.43677Z" fill="white"/>
<path d="M8.67364 9.59092C8.7514 10.7415 8.61255 11.9669 8.50702 13.195C8.47925 13.5056 8.45704 13.8133 8.4376 14.1238C8.42649 14.3012 8.3765 14.4482 8.16823 14.4509C7.9544 14.4565 7.91552 14.2985 7.88775 14.1293C7.81833 13.7052 7.83776 13.2754 7.79055 12.8485C7.54618 10.4947 7.73779 8.13818 7.83221 5.78441C7.8572 5.17448 7.8211 4.56178 7.8933 3.95185C7.91552 3.7661 7.94329 3.6053 8.17934 3.61639C8.42093 3.62748 8.42649 3.80214 8.43482 3.98234C8.51258 5.82322 8.59311 7.6641 8.67642 9.59092H8.67364Z" fill="white"/>
<path d="M7.33788 10.1645C7.35454 11.5007 7.15739 12.8397 7.06575 14.1842C7.05465 14.3423 6.97967 14.4559 6.80751 14.4476C6.61313 14.4393 6.57148 14.284 6.55759 14.1288C6.51039 13.53 6.46318 12.934 6.42708 12.3352C6.37154 11.4175 6.29657 10.4999 6.35488 9.57678C6.44374 8.13244 6.49095 6.68533 6.55759 5.24099C6.56592 5.07188 6.6159 4.90278 6.82139 4.9C7.01022 4.89723 7.0602 5.03584 7.06853 5.20495C7.15739 6.85166 7.24625 8.50115 7.33788 10.1645Z" fill="white"/>
<path d="M4.99408 10.6692C5.08572 9.53533 5.17457 8.41534 5.26343 7.29536C5.27454 7.16784 5.33008 7.05972 5.4717 7.05417C5.63553 7.04586 5.69384 7.16784 5.70773 7.30368C5.77437 7.98565 5.83824 8.66762 5.90211 9.34682C5.9271 9.62404 5.94376 9.90127 5.97153 10.1785C6.07427 11.146 5.84935 12.0941 5.81047 13.0533C5.79659 13.3943 5.74105 13.7353 5.71328 14.0763C5.6994 14.2454 5.67996 14.4256 5.4717 14.42C5.28842 14.4145 5.26899 14.2454 5.25788 14.0846C5.17457 12.9424 5.08294 11.8003 4.99408 10.672V10.6692Z" fill="white"/>
<path d="M3.68896 10.6359C3.77227 9.60739 3.85835 8.55948 3.94443 7.51435C3.95832 7.35356 3.95832 7.19277 3.97776 7.03475C3.99164 6.92109 4.05551 6.81574 4.17769 6.82128C4.29432 6.82683 4.34985 6.92109 4.36096 7.04306C4.42205 7.69454 4.48592 8.34325 4.54701 8.99195C4.58588 9.3967 4.61088 9.80145 4.66364 10.2062C4.72195 10.6581 4.64697 11.1044 4.61088 11.5507C4.53868 12.4046 4.44704 13.2557 4.36651 14.1067C4.35541 14.237 4.31375 14.3562 4.17491 14.3562C4.03885 14.3562 3.98331 14.237 3.9722 14.1067C3.87779 12.9563 3.78338 11.803 3.68896 10.6331V10.6359Z" fill="white"/>
<path d="M2.39209 10.6498C2.47817 9.67393 2.56425 8.69533 2.64756 7.71395C2.66144 7.54207 2.67255 7.37297 2.68088 7.20109C2.68643 7.07357 2.72809 6.94604 2.8586 6.93495C2.99466 6.92109 3.0141 7.0597 3.02521 7.16505C3.08352 7.71673 3.13906 8.27117 3.1946 8.82285C3.25291 9.38562 3.34455 9.94838 3.35565 10.5139C3.36676 11.0018 3.28901 11.4925 3.24458 11.9804C3.18904 12.5765 3.12518 13.1725 3.06408 13.7658C3.06408 13.7879 3.06408 13.8101 3.05853 13.8295C2.99744 13.9598 3.09463 14.2093 2.8586 14.201C2.63645 14.1927 2.69477 13.9709 2.68088 13.8184C2.59202 12.8066 2.50039 11.7947 2.41153 10.7828C2.40875 10.7412 2.40042 10.6969 2.39209 10.6498Z" fill="white"/>
<path d="M2.05602 10.5805C2.05602 11.0573 1.94216 11.5813 1.89218 12.1108C1.85053 12.5571 1.77 12.9979 1.71446 13.4415C1.70058 13.5496 1.71446 13.6771 1.56729 13.6799C1.41457 13.6826 1.42012 13.5357 1.40901 13.4415C1.33404 12.7928 1.29238 12.1413 1.19242 11.4981C1.02303 10.3975 1.28128 9.32745 1.37569 8.24628C1.39235 8.06608 1.40346 7.88311 1.43123 7.70569C1.44233 7.62807 1.45622 7.51718 1.57285 7.53381C1.66448 7.54767 1.70336 7.62252 1.71446 7.72232C1.74779 8.03004 1.79777 8.33776 1.83387 8.64548C1.90884 9.27201 1.97826 9.89576 2.05879 10.5805H2.05602Z" fill="white"/>
<path d="M0.761956 10.6249C0.667544 11.2376 0.573131 11.8364 0.481495 12.4352C0.467611 12.5156 0.428735 12.5766 0.3371 12.5794C0.23158 12.5794 0.226026 12.4906 0.214919 12.4213C0.153828 11.9889 0.103845 11.5564 0.0344244 11.1239C-0.0849796 10.3727 0.139944 9.64632 0.198258 8.90891C0.206588 8.81188 0.209365 8.66495 0.356538 8.67604C0.464834 8.68436 0.473165 8.80633 0.487049 8.90336C0.575908 9.47999 0.67032 10.0566 0.759179 10.6249H0.761956Z" fill="white"/>
</g>
</svg>
